<svg width="18" height="17" viewBox="0 0 18 17" fill="none" xmlns="http://www.w3.org/2000/svg">
<g clip-path="url(#clip0_2_2944)">
<path d="M8.90098 15.1573C12.6799 15.1573 15.7434 12.0939 15.7434 8.31492C15.7434 4.53598 12.6799 1.47253 8.90098 1.47253C5.12204 1.47253 2.05859 4.53598 2.05859 8.31492C2.05859 12.0939 5.12204 15.1573 8.90098 15.1573Z" stroke="#1184E0" stroke-width="1.02636" stroke-linecap="round" stroke-linejoin="round"/>
<path d="M8.89453 11.7361H8.90786" stroke="#1184E0" stroke-width="1.02636" stroke-linecap="round" stroke-linejoin="round"/>
<path d="M6.84863 6.94646C6.84863 6.54047 6.96902 6.14359 7.19458 5.80603C7.42013 5.46846 7.74072 5.20536 8.11581 5.04999C8.49089 4.89463 8.90363 4.85398 9.30181 4.93318C9.7 5.01239 10.0658 5.20789 10.3528 5.49497C10.6399 5.78204 10.8354 6.1478 10.9146 6.54599C10.9938 6.94418 10.9532 7.35691 10.7978 7.732C10.6424 8.10708 10.3793 8.42767 10.0418 8.65323C9.70421 8.87878 9.30734 8.99917 8.90135 8.99917V9.68341" stroke="#1184E0" stroke-width="1.02636" stroke-linecap="round" stroke-linejoin="round"/>
</g>
<defs>
<clipPath id="clip0_2_2944">
<rect width="16.4217" height="16.4217" fill="white" transform="translate(0.69043 0.104065)"/>
</clipPath>
</defs>
</svg>
