<svg width="69" height="30" viewBox="0 0 69 30" fill="none" xmlns="http://www.w3.org/2000/svg">
<rect x="0.655273" y="0.798767" width="67.7396" height="28.738" rx="4.10543" fill="white"/>
<g clip-path="url(#clip0_2_3061)">
<path d="M28.8881 8.94952H29.8762V12.2872C29.8847 12.472 29.8545 12.6566 29.7877 12.8298C29.7208 13.0029 29.6186 13.1612 29.4872 13.2949C29.3314 13.4307 29.1491 13.5346 28.9511 13.6002C28.753 13.6658 28.5434 13.6919 28.3348 13.6768C27.9435 13.6979 27.5593 13.5685 27.2652 13.3165C27.1297 13.1745 27.0258 13.0068 26.9602 12.8238C26.8945 12.6409 26.8684 12.4468 26.8836 12.2536V11.7852H27.7753V12.2056C27.7602 12.3868 27.8033 12.5681 27.8988 12.7244C28.0187 12.8314 28.175 12.8914 28.3377 12.8927C28.5004 12.894 28.6578 12.8366 28.7795 12.7316C28.8661 12.5646 28.9041 12.3777 28.8894 12.1911L28.8881 8.94952Z" fill="#2E281F"/>
<path d="M32.5167 13.5132V13.0327C32.4067 13.2142 32.2475 13.3628 32.0564 13.4621C31.8654 13.5615 31.6499 13.6078 31.4336 13.596C31.2701 13.5985 31.1078 13.5682 30.9568 13.5072C30.8159 13.4493 30.6894 13.3625 30.5863 13.2525C30.4787 13.1383 30.3948 13.005 30.3393 12.8598C30.2789 12.6969 30.2492 12.5248 30.2516 12.3518V10.1262H31.1693V12.2184C31.1693 12.6404 31.3652 12.8514 31.7572 12.8514C31.8574 12.858 31.9579 12.842 32.0507 12.8045C32.1435 12.7669 32.2261 12.709 32.292 12.6352C32.4167 12.4763 32.4805 12.2801 32.4723 12.0803V10.1262H33.3924V13.5132H32.5167Z" fill="#2E281F"/>
<path d="M34.6235 12.0545C34.6243 12.2784 34.7055 12.4951 34.8532 12.667C34.9217 12.7419 35.0064 12.801 35.1012 12.8403C35.196 12.8795 35.2986 12.8979 35.4016 12.894C35.5414 12.8966 35.6793 12.8621 35.8005 12.7943C35.855 12.7647 35.9028 12.7248 35.9412 12.677C35.9796 12.6291 36.0078 12.5743 36.0241 12.5157H36.9726C36.8821 12.8383 36.6823 13.1218 36.4057 13.3204C36.1245 13.5126 35.7871 13.6116 35.4436 13.6026C34.2842 13.6026 33.7042 12.9877 33.7033 11.7578C33.7 11.5172 33.738 11.2777 33.8157 11.0492C33.886 10.8481 33.9983 10.6633 34.1455 10.5063C34.292 10.353 34.4723 10.2339 34.6729 10.158C34.901 10.0748 35.1432 10.0341 35.3868 10.0379C35.6165 10.0236 35.8464 10.0615 36.0585 10.1487C36.2705 10.2358 36.4587 10.3698 36.6083 10.54C36.9169 10.9854 37.0626 11.5188 37.022 12.0545H34.6235ZM36.0735 11.49C36.071 11.3781 36.0484 11.2676 36.0068 11.1633C35.9702 11.0757 35.916 10.9961 35.8474 10.9291C35.7826 10.8682 35.7051 10.8215 35.6202 10.7922C35.538 10.7643 35.4515 10.7505 35.3645 10.7513C35.2754 10.7507 35.1871 10.7678 35.1051 10.8017C35.0231 10.8356 34.9491 10.8855 34.8878 10.9483C34.7449 11.0969 34.6632 11.2914 34.6581 11.4948L36.0735 11.49Z" fill="#2E281F"/>
<path d="M39.7728 13.0595C39.7035 13.2182 39.5764 13.3465 39.4159 13.4198C39.2298 13.5078 39.0249 13.5514 38.8181 13.5471C38.5674 13.5549 38.3183 13.5042 38.0918 13.3994C37.9048 13.3077 37.7427 13.1744 37.6188 13.0102C37.4947 12.843 37.4058 12.6536 37.357 12.4529C37.3025 12.2416 37.2751 12.0246 37.2755 11.8068C37.2735 11.5614 37.3153 11.3176 37.399 11.0862C37.4711 10.8823 37.5817 10.6933 37.725 10.5289C37.8573 10.3772 38.021 10.2544 38.2055 10.1686C38.3913 10.0838 38.5943 10.0403 38.7996 10.0412C38.9946 10.0319 39.1886 10.0744 39.3607 10.1641C39.5328 10.2538 39.6765 10.3874 39.7765 10.5505V10.1289H40.6967V13.5483C40.7018 13.7808 40.6559 14.0118 40.562 14.2257C40.4773 14.4133 40.3508 14.5803 40.1915 14.7145C40.0297 14.8488 39.842 14.9504 39.6394 15.0136C39.1998 15.1489 38.7279 15.1489 38.2882 15.0136C38.0933 14.9538 37.9121 14.858 37.7547 14.7313C37.6059 14.6103 37.4861 14.459 37.4039 14.2881C37.3178 14.1022 37.2755 13.8999 37.2804 13.696H38.1363C38.1304 13.7863 38.1462 13.8768 38.1824 13.9602C38.2187 14.0435 38.2743 14.1176 38.345 14.1764C38.5037 14.2954 38.7007 14.3555 38.9008 14.3458C39.1238 14.3509 39.3418 14.2813 39.5184 14.1488C39.6013 14.086 39.6676 14.0048 39.7118 13.9121C39.7561 13.8193 39.777 13.7177 39.7728 13.6155V13.0595ZM39.0157 12.8397C39.1228 12.8417 39.2289 12.8201 39.3262 12.7767C39.4235 12.7332 39.5095 12.6689 39.5777 12.5887C39.736 12.3949 39.8156 12.1512 39.8012 11.9041C39.8012 11.1786 39.5394 10.8183 39.0157 10.8231C38.492 10.8279 38.2302 11.1718 38.2302 11.8548C38.2164 12.113 38.2954 12.3678 38.4537 12.5754C38.5192 12.6599 38.6041 12.7282 38.7018 12.7747C38.7994 12.8212 38.907 12.8447 39.0157 12.8433" fill="#2E281F"/>
<path d="M42.8135 13.6016C42.555 13.606 42.2979 13.5619 42.0564 13.4719C41.8435 13.3915 41.6514 13.2666 41.4936 13.106C41.3359 12.9453 41.2164 12.7529 41.1437 12.5423C41.0605 12.3107 41.0187 12.067 41.0202 11.8217C41.017 11.5731 41.0588 11.3259 41.1437 11.0915C41.2186 10.8815 41.3397 10.6899 41.4987 10.5302C41.6576 10.3704 41.8505 10.2464 42.0638 10.1667C42.3003 10.0789 42.5518 10.0357 42.8049 10.0394C43.0581 10.0346 43.3098 10.0778 43.5459 10.1667C43.7573 10.246 43.9481 10.3694 44.1052 10.5281C44.2622 10.6868 44.3816 10.8771 44.455 11.0855C44.6196 11.562 44.6196 12.0778 44.455 12.5543C44.3781 12.7629 44.2579 12.9539 44.1017 13.1152C43.9445 13.2736 43.7535 13.3966 43.5422 13.4755C43.3087 13.5631 43.0601 13.6063 42.8098 13.6028M42.8098 12.8534C43.3706 12.8534 43.6513 12.5095 43.6522 11.8217C43.653 11.1339 43.3722 10.792 42.8098 10.796C42.2491 10.796 41.9683 11.1379 41.9675 11.8217C41.9667 12.5055 42.2475 12.8494 42.8098 12.8534Z" fill="#2E281F"/>
<path d="M29.7582 19.789V18.6132C29.7669 18.5283 29.7576 18.4426 29.7308 18.3614C29.7041 18.2803 29.6604 18.2053 29.6026 18.1412C29.4325 18.0286 29.2266 17.9788 29.0221 18.0006H27.9747V19.789H27.02V15.225H29.4037C29.6056 15.2226 29.8061 15.2564 29.9953 15.3247C30.1641 15.387 30.3188 15.4804 30.4511 15.5998C30.5788 15.7179 30.679 15.8612 30.745 16.0201C30.8141 16.1873 30.8489 16.366 30.8476 16.5462C30.852 16.7773 30.7895 17.0049 30.6672 17.2032C30.5482 17.3928 30.364 17.5353 30.1473 17.6055C30.3261 17.6505 30.4827 17.7556 30.5894 17.9022C30.6889 18.0869 30.7342 18.2946 30.7203 18.5027V19.7962L29.7582 19.789ZM27.9747 16.0117V17.2296H29.2098C29.3102 17.2395 29.4116 17.2294 29.5078 17.1998C29.604 17.1703 29.693 17.122 29.7693 17.0578C29.8785 16.9389 29.9364 16.7836 29.9311 16.6242C29.9375 16.463 29.8805 16.3054 29.7718 16.1835C29.7012 16.1204 29.6178 16.0725 29.5269 16.0429C29.4361 16.0133 29.3398 16.0027 29.2444 16.0117H27.9747Z" fill="#2E281F"/>
<path d="M31.969 18.3319C31.9698 18.5559 32.051 18.7726 32.1987 18.9445C32.2672 19.0193 32.3519 19.0785 32.4467 19.1178C32.5415 19.157 32.6441 19.1754 32.7471 19.1715C32.8856 19.1734 33.0222 19.139 33.1423 19.0718C33.1968 19.0422 33.2446 19.0023 33.283 18.9544C33.3214 18.9066 33.3496 18.8517 33.3659 18.7931H34.3144C34.2239 19.1157 34.0241 19.3992 33.7475 19.5978C33.4663 19.7901 33.1289 19.8891 32.7854 19.8801C31.6252 19.8801 31.0451 19.2651 31.0451 18.0353C31.0418 17.7946 31.0798 17.5551 31.1575 17.3267C31.2278 17.1256 31.3401 16.9407 31.4873 16.7838C31.6338 16.6304 31.8141 16.5113 32.0147 16.4355C32.2428 16.3523 32.485 16.3115 32.7286 16.3154C32.9583 16.3011 33.1882 16.339 33.4003 16.4261C33.6123 16.5133 33.8005 16.6472 33.9501 16.8174C34.2587 17.2629 34.4044 17.7963 34.3638 18.3319H31.969ZM33.419 17.7674C33.4165 17.6556 33.3939 17.5451 33.3523 17.4408C33.3157 17.3532 33.2615 17.2736 33.1929 17.2066C33.1278 17.1457 33.0504 17.0987 32.9657 17.0684C32.8816 17.0392 32.7931 17.0242 32.7038 17.024C32.6148 17.0234 32.5265 17.0405 32.4445 17.0744C32.3625 17.1083 32.2885 17.1582 32.2271 17.221C32.0847 17.37 32.0026 17.5641 31.9961 17.7674H33.419Z" fill="#2E281F"/>
<path d="M36.7799 17.4282C36.776 17.361 36.7575 17.2954 36.7258 17.2356C36.6941 17.1758 36.6499 17.1232 36.5959 17.0811C36.4538 17.0039 36.2914 16.9692 36.129 16.9814C35.9912 16.9751 35.8536 16.9972 35.7252 17.0462C35.6817 17.0641 35.6448 17.0945 35.6197 17.1334C35.5945 17.1723 35.5822 17.2177 35.5844 17.2636C35.583 17.3109 35.5955 17.3576 35.6204 17.3983C35.6453 17.4389 35.6817 17.4718 35.7252 17.493C35.86 17.5609 36.0026 17.6129 36.15 17.648C36.3489 17.7032 36.5366 17.7524 36.7157 17.7957C36.8765 17.834 37.0348 17.8814 37.19 17.9374C37.3567 17.9981 37.5035 18.1014 37.6149 18.2365C37.7217 18.3893 37.7738 18.572 37.7631 18.7565C37.771 18.9139 37.7401 19.0709 37.6731 19.2144C37.6061 19.3579 37.5048 19.4838 37.3777 19.5816C37.0439 19.8007 36.6444 19.9051 36.2427 19.8783C35.8045 19.9065 35.3693 19.7901 35.0076 19.548C34.8728 19.45 34.7629 19.3232 34.6862 19.1775C34.6096 19.0318 34.5683 18.8709 34.5654 18.7073H35.514C35.5105 18.7798 35.5261 18.852 35.5594 18.9169C35.5927 18.9819 35.6425 19.0375 35.7042 19.0784C35.8631 19.1742 36.0486 19.2199 36.2353 19.2093C36.3831 19.2126 36.53 19.1856 36.6663 19.13C36.7233 19.109 36.7717 19.0706 36.8044 19.0206C36.8371 18.9706 36.8524 18.9117 36.8479 18.8526C36.8506 18.7988 36.8362 18.7454 36.8065 18.6998C36.7769 18.6543 36.7336 18.6187 36.6824 18.598C36.5559 18.5426 36.4244 18.4988 36.2896 18.4671C35.9973 18.399 35.7614 18.337 35.5819 18.2809C35.422 18.2352 35.2695 18.1681 35.1286 18.0815C34.9832 18.0008 34.8641 17.8817 34.7853 17.738C34.7213 17.6067 34.6888 17.463 34.6902 17.3177C34.6891 17.1811 34.7156 17.0456 34.768 16.9189C34.8221 16.7924 34.9099 16.6821 35.0224 16.5994C35.1591 16.501 35.3144 16.4296 35.4794 16.3893C35.7001 16.3348 35.9273 16.3093 36.155 16.3136C36.5476 16.2834 36.9393 16.3828 37.2666 16.5958C37.3897 16.699 37.4885 16.8268 37.5562 16.9704C37.624 17.114 37.6592 17.2701 37.6593 17.4282H36.7799Z" fill="#2E281F"/>
<path d="M38.0249 21.393V16.405H38.9092L38.9166 16.8182C39.0155 16.6561 39.1581 16.5235 39.3291 16.4348C39.5 16.3461 39.6927 16.3046 39.8862 16.315C40.094 16.3126 40.3 16.3535 40.4901 16.4351C40.6757 16.5181 40.8392 16.6414 40.9681 16.7954C41.1077 16.9653 41.2133 17.1593 41.2794 17.3671C41.3584 17.6143 41.3967 17.8721 41.393 18.1309C41.3955 18.3692 41.3631 18.6066 41.2967 18.836C41.2401 19.0359 41.1454 19.2237 41.0175 19.3896C40.8988 19.5423 40.7448 19.6658 40.568 19.7499C40.3796 19.8376 40.1728 19.8812 39.964 19.8773C39.7597 19.881 39.5578 19.8344 39.377 19.7418C39.1963 19.6492 39.0426 19.5136 38.9302 19.3476V21.3894L38.0249 21.393ZM39.6663 19.111C40.195 19.111 40.4593 18.7623 40.4593 18.0649C40.4708 17.8016 40.3936 17.5418 40.2394 17.325C40.1765 17.236 40.0919 17.1635 39.9932 17.1138C39.8946 17.0642 39.7848 17.039 39.6737 17.0404C39.566 17.0394 39.4595 17.0631 39.3629 17.1097C39.2663 17.1562 39.1824 17.2242 39.118 17.3082C38.9616 17.5095 38.8825 17.7576 38.8944 18.0096C38.8944 18.7439 39.1517 19.111 39.6663 19.111Z" fill="#2E281F"/>
<path d="M43.4351 19.8801C43.1765 19.8844 42.9195 19.8404 42.678 19.7504C42.4651 19.67 42.2729 19.545 42.1152 19.3844C41.9575 19.2237 41.838 19.0313 41.7653 18.8208C41.6821 18.5892 41.6403 18.3455 41.6418 18.1001C41.6385 17.8516 41.6804 17.6044 41.7653 17.3699C41.8402 17.1599 41.9613 16.9684 42.1203 16.8086C42.2792 16.6489 42.4721 16.5248 42.6854 16.4451C42.9219 16.3573 43.1734 16.3141 43.4265 16.3178C43.6797 16.313 43.9314 16.3563 44.1675 16.4451C44.3788 16.5244 44.5697 16.6478 44.7268 16.8065C44.8838 16.9653 45.0032 17.1555 45.0766 17.3639C45.2412 17.8404 45.2412 18.3562 45.0766 18.8328C44.9997 19.0414 44.8795 19.2323 44.7233 19.3937C44.5661 19.552 44.3751 19.675 44.1638 19.754C43.9303 19.8416 43.6817 19.8848 43.4314 19.8813M43.4314 19.1318C43.9921 19.1318 44.2729 18.7879 44.2737 18.1001C44.2746 17.4123 43.9938 17.0705 43.4314 17.0745C42.8707 17.0745 42.5899 17.4164 42.5891 18.1001C42.5883 18.7839 42.869 19.1278 43.4314 19.1318Z" fill="#2E281F"/>
<path d="M47.7757 19.7891V17.7389C47.7977 17.5524 47.7499 17.3644 47.6411 17.2092C47.5779 17.1575 47.5047 17.1186 47.4258 17.0949C47.3468 17.0712 47.2638 17.0631 47.1816 17.0711C46.7049 17.0711 46.4665 17.3302 46.4665 17.8482V19.7891H45.5464V16.4033H46.4245V16.8994C46.5224 16.7167 46.672 16.565 46.8556 16.4622C47.2164 16.2959 47.6286 16.2689 48.0092 16.3865C48.1456 16.4314 48.2701 16.5052 48.3735 16.6027C48.4784 16.7055 48.5604 16.8281 48.6143 16.963C48.6759 17.116 48.7061 17.2792 48.7033 17.4435V19.7903L47.7757 19.7891Z" fill="#2E281F"/>
<path d="M51.193 17.4283C51.1891 17.3611 51.1706 17.2955 51.1389 17.2357C51.1072 17.1759 51.063 17.1233 51.009 17.0812C50.8669 17.004 50.7045 16.9693 50.5421 16.9815C50.4043 16.9752 50.2667 16.9973 50.1383 17.0464C50.0948 17.0642 50.0579 17.0947 50.0327 17.1335C50.0076 17.1724 49.9953 17.2179 49.9975 17.2637C49.996 17.311 50.0085 17.3578 50.0335 17.3984C50.0584 17.439 50.0948 17.4719 50.1383 17.4931C50.2731 17.561 50.4157 17.613 50.5631 17.6481C50.762 17.7033 50.9497 17.7526 51.1288 17.7958C51.2896 17.8342 51.4479 17.8815 51.6031 17.9375C51.7698 17.9982 51.9166 18.1015 52.028 18.2366C52.1348 18.3894 52.1869 18.5722 52.1762 18.7566C52.184 18.9141 52.1532 19.071 52.0862 19.2146C52.0192 19.3581 51.9179 19.4839 51.7908 19.5818C51.457 19.8008 51.0575 19.9052 50.6558 19.8784C50.2176 19.9066 49.7824 19.7902 49.4207 19.5481C49.2859 19.4501 49.176 19.3234 49.0993 19.1776C49.0227 19.0319 48.9814 18.8711 48.9785 18.7074H49.9271C49.9236 18.7799 49.9392 18.8521 49.9725 18.917C50.0058 18.982 50.0556 19.0376 50.1173 19.0785C50.2762 19.1743 50.4617 19.22 50.6484 19.2094C50.7962 19.2128 50.943 19.1857 51.0794 19.1302C51.1358 19.1098 51.184 19.0725 51.2171 19.0237C51.2502 18.9749 51.2664 18.9171 51.2634 18.8587C51.2662 18.8049 51.2517 18.7515 51.2221 18.706C51.1925 18.6604 51.1491 18.6248 51.0979 18.6041C50.9715 18.5487 50.84 18.5049 50.7052 18.4732C50.4129 18.4051 50.177 18.3431 49.9975 18.287C49.8376 18.2413 49.6851 18.1742 49.5442 18.0877C49.3972 18.0053 49.2773 17.8841 49.1984 17.7382C49.1344 17.6068 49.1019 17.4631 49.1033 17.3178C49.1022 17.1812 49.1286 17.0458 49.1811 16.919C49.2352 16.7925 49.323 16.6822 49.4355 16.5996C49.5722 16.5011 49.7275 16.4297 49.8925 16.3894C50.1132 16.3349 50.3404 16.3095 50.5681 16.3137C50.9607 16.2835 51.3523 16.3829 51.6797 16.596C51.8028 16.6991 51.9016 16.8269 51.9693 16.9705C52.0371 17.1141 52.0723 17.2703 52.0724 17.4283H51.193Z" fill="#2E281F"/>
<path d="M54.6188 19.7885C54.5879 19.69 54.5689 19.5885 54.562 19.4858C54.4424 19.6118 54.2944 19.7092 54.1297 19.7705C53.933 19.8449 53.7232 19.8812 53.5122 19.8773C53.1954 19.9047 52.8799 19.8122 52.6315 19.6191C52.5387 19.5331 52.4657 19.4288 52.4174 19.3133C52.3691 19.1978 52.3465 19.0736 52.3512 18.9489C52.3426 18.7482 52.385 18.5486 52.4747 18.3676C52.551 18.2263 52.666 18.1083 52.8069 18.0265C52.964 17.9384 53.1352 17.8767 53.3133 17.844C53.5085 17.8055 53.7217 17.7699 53.9531 17.7371C54.1159 17.7255 54.2747 17.6822 54.4199 17.6098C54.4608 17.578 54.4931 17.5371 54.514 17.4905C54.5349 17.4439 54.5439 17.3931 54.5401 17.3424C54.5364 17.2916 54.52 17.2426 54.4924 17.1994C54.4648 17.1562 54.4268 17.1202 54.3817 17.0945C54.2501 17.0262 54.102 16.9938 53.9531 17.0008C53.8715 16.9933 53.7892 17.0016 53.7109 17.0254C53.6327 17.0491 53.5601 17.0877 53.4973 17.139C53.4014 17.238 53.3404 17.3642 53.3232 17.4993H52.4673C52.4704 17.3356 52.5005 17.1734 52.5562 17.0189C52.6088 16.8731 52.699 16.7428 52.818 16.6405C52.9548 16.5278 53.1155 16.4458 53.2886 16.4003C53.5189 16.3383 53.7574 16.3096 53.9963 16.3151C54.2318 16.3097 54.4668 16.3396 54.6929 16.4039C54.8652 16.4527 55.0229 16.5413 55.1524 16.6622C55.2695 16.7795 55.3545 16.9237 55.3994 17.0813C55.4536 17.266 55.4798 17.4574 55.4772 17.6494V19.7897L54.6188 19.7885ZM54.5546 18.1298C54.4961 18.1818 54.4259 18.2197 54.3496 18.2403C54.2215 18.2763 54.0916 18.306 53.9605 18.3292C53.7664 18.3533 53.5803 18.4194 53.4158 18.5226C53.3655 18.5632 53.3257 18.6149 53.2997 18.6733C53.2738 18.7318 53.2623 18.7953 53.2664 18.8589C53.2664 19.1111 53.4158 19.2372 53.7122 19.2372C53.8249 19.2381 53.9367 19.2186 54.042 19.1795C54.1385 19.1426 54.2272 19.0889 54.3038 19.021C54.3769 18.9541 54.4368 18.8747 54.4805 18.7868C54.5249 18.6977 54.5477 18.5999 54.5472 18.5009L54.5546 18.1298Z" fill="#2E281F"/>
<path d="M55.874 19.7888V15.1648H56.7793V16.8463C56.8918 16.6805 57.0456 16.545 57.2263 16.4524C57.407 16.3598 57.6089 16.3131 57.8131 16.3166C58.0223 16.3128 58.2295 16.3564 58.4183 16.4439C58.5946 16.5283 58.7482 16.6517 58.8666 16.8042C58.9949 16.9705 59.09 17.1587 59.147 17.3591C59.2125 17.5886 59.2445 17.8259 59.2421 18.0641C59.2465 18.323 59.2081 18.5809 59.1285 18.828C59.0625 19.0354 58.9569 19.229 58.8172 19.3985C58.6891 19.5528 58.5259 19.6761 58.3405 19.7588C58.1501 19.841 57.9436 19.882 57.7353 19.8789C57.542 19.8892 57.3494 19.8479 57.1785 19.7594C57.0076 19.6709 56.8649 19.5386 56.7658 19.3769L56.7583 19.79L55.874 19.7888ZM57.5229 19.1487C57.6341 19.1501 57.7439 19.1247 57.8426 19.0748C57.9413 19.025 58.0258 18.9521 58.0885 18.8628C58.2433 18.6463 58.3206 18.3864 58.3084 18.123C58.3084 17.4264 58.0441 17.0781 57.5155 17.0781C57.0017 17.0781 56.7448 17.4448 56.7448 18.1782C56.7322 18.4305 56.8108 18.6791 56.9671 18.8808C57.0316 18.9647 57.1155 19.0327 57.2121 19.0792C57.3087 19.1258 57.4151 19.1495 57.5229 19.1487Z" fill="#2E281F"/>
<path d="M60.5071 15.1648H59.5869V19.7888H60.5071V15.1648Z" fill="#2E281F"/>
<path d="M61.7377 18.3319C61.7385 18.5559 61.8198 18.7726 61.9675 18.9445C62.036 19.0193 62.1207 19.0785 62.2155 19.1178C62.3103 19.157 62.4129 19.1754 62.5158 19.1715C62.6556 19.174 62.7935 19.1396 62.9148 19.0718C62.9692 19.0422 63.0171 19.0023 63.0555 18.9544C63.0939 18.9066 63.122 18.8517 63.1383 18.7931H64.0869C63.9963 19.1157 63.7966 19.3992 63.52 19.5978C63.2388 19.7901 62.9014 19.8891 62.5578 19.8801C61.3977 19.8801 60.8176 19.2651 60.8176 18.0353C60.8142 17.7946 60.8522 17.5551 60.93 17.3267C61.0003 17.1256 61.1125 16.9407 61.2597 16.7838C61.4062 16.6304 61.5865 16.5113 61.7871 16.4355C62.0152 16.3523 62.2574 16.3115 62.501 16.3154C62.7307 16.3011 62.9607 16.339 63.1727 16.4261C63.3847 16.5133 63.573 16.6472 63.7225 16.8174C64.0312 17.2629 64.1769 17.7963 64.1363 18.3319H61.7377ZM63.1877 17.7674C63.1852 17.6556 63.1626 17.5451 63.121 17.4408C63.0844 17.3532 63.0303 17.2736 62.9617 17.2066C62.8966 17.1457 62.8192 17.0987 62.7344 17.0684C62.6504 17.0392 62.5618 17.0242 62.4726 17.024C62.3835 17.0234 62.2952 17.0405 62.2132 17.0744C62.1312 17.1083 62.0572 17.1582 61.9959 17.221C61.8534 17.37 61.7714 17.5641 61.7649 17.7674H63.1877Z" fill="#2E281F"/>
<path d="M23.7589 15.1678C23.7589 16.9947 23.2018 18.7806 22.158 20.2997C21.1142 21.8187 19.6307 23.0027 17.8949 23.7018C16.1592 24.401 14.2493 24.5839 12.4066 24.2275C10.564 23.8711 8.87142 22.9913 7.54296 21.6995C6.21449 20.4076 5.30979 18.7617 4.94327 16.9699C4.57674 15.178 4.76486 13.3207 5.48382 11.6328C6.20278 9.94495 7.4203 8.50229 8.98241 7.48729C10.5445 6.4723 12.3811 5.93054 14.2598 5.93054C16.7791 5.93054 19.1952 6.90375 20.9767 8.63606C22.7581 10.3684 23.7589 12.7179 23.7589 15.1678Z" fill="#FF0015"/>
<path d="M8.59195 17.6659V15.5628H6.44043V14.5167H8.59195V12.4245H9.66771V14.5167H11.8304V15.5628H9.66771V17.6659H8.59195Z" fill="white"/>
<path d="M13.7662 18.8567V13.7535H12.21V12.7518C12.4867 12.7567 12.7632 12.7305 13.0338 12.6737C13.2307 12.6328 13.4161 12.5509 13.5772 12.4335C13.7166 12.3279 13.8266 12.19 13.8971 12.0324C13.9754 11.8536 14.0238 11.6639 14.0404 11.4703H15.2532V18.8603L13.7662 18.8567Z" fill="white"/>
<path d="M19.8544 14.8179C20.0251 14.8945 20.1816 14.998 20.3176 15.1241C20.4585 15.2534 20.5799 15.4014 20.6782 15.5637C20.779 15.731 20.8559 15.9108 20.9067 16.0982C20.9605 16.2941 20.9875 16.496 20.987 16.6987C20.9904 17.0279 20.9361 17.3553 20.8264 17.6668C20.7255 17.9552 20.5592 18.2179 20.3398 18.4354C20.1087 18.6591 19.8295 18.8302 19.5222 18.9363C19.1506 19.0613 18.7593 19.1215 18.3661 19.114C17.9746 19.1211 17.5849 19.0588 17.2163 18.9303C16.9067 18.8215 16.6239 18.6509 16.3863 18.4294C16.1675 18.2189 15.9989 17.9643 15.8923 17.6836C15.78 17.3901 15.724 17.0791 15.7268 16.766C15.7166 16.3716 15.8197 15.9823 16.0244 15.6418C16.2377 15.309 16.5482 15.0455 16.9161 14.8851C16.6147 14.7405 16.3786 14.4929 16.2529 14.1897C16.126 13.8953 16.0597 13.5794 16.0578 13.2601C16.0557 12.9823 16.1142 12.7072 16.2294 12.453C16.3419 12.2077 16.506 11.988 16.7111 11.8081C16.9247 11.6213 17.1728 11.4758 17.4423 11.3793C17.7391 11.2727 18.0535 11.2198 18.3698 11.2232C18.7062 11.2173 19.0408 11.2702 19.3579 11.3793C19.6233 11.4717 19.8665 11.6155 20.073 11.8021C20.2622 11.9782 20.4087 12.1932 20.5016 12.4314C20.5994 12.6818 20.648 12.9479 20.6449 13.2157C20.6462 13.5352 20.5859 13.8522 20.467 14.1501C20.3548 14.4402 20.1343 14.6787 19.8495 14.8179M18.3501 17.9226C18.5064 17.937 18.6641 17.9153 18.8102 17.8594C18.9563 17.8035 19.0869 17.7149 19.1912 17.6007C19.3776 17.3362 19.468 17.0188 19.4481 16.6987C19.4617 16.3993 19.3688 16.1045 19.185 15.864C19.0813 15.7506 18.9518 15.6624 18.8069 15.6063C18.6619 15.5502 18.5055 15.5278 18.3501 15.5409C18.1973 15.5272 18.0433 15.5482 17.9003 15.6024C17.7573 15.6566 17.6292 15.7425 17.5263 15.8532C17.3491 16.0985 17.2621 16.3946 17.2793 16.6939C17.26 17.0126 17.3466 17.3288 17.5263 17.5959C17.6278 17.7105 17.7563 17.7996 17.9007 17.8556C18.0452 17.9117 18.2015 17.933 18.3563 17.9178M18.3563 14.3903C18.4869 14.4001 18.618 14.38 18.7392 14.3316C18.8604 14.2832 18.9682 14.2079 19.0541 14.1117C19.2132 13.9074 19.294 13.6555 19.2826 13.3995C19.2967 13.1379 19.2158 12.8799 19.0541 12.6704C18.8663 12.4956 18.6163 12.3979 18.3563 12.3979C18.0962 12.3979 17.8463 12.4956 17.6584 12.6704C17.4963 12.8797 17.415 13.1378 17.4287 13.3995C17.4176 13.6556 17.4988 13.9075 17.6584 14.1117C17.7442 14.208 17.852 14.2835 17.9732 14.3319C18.0944 14.3803 18.2256 14.4003 18.3563 14.3903Z" fill="white"/>
</g>
<defs>
<clipPath id="clip0_2_3061">
<rect width="59.5288" height="18.4744" fill="white" transform="translate(4.76074 5.93054)"/>
</clipPath>
</defs>
</svg>
