<svg width="105" height="30" viewBox="0 0 105 30" fill="none" xmlns="http://www.w3.org/2000/svg">
<rect x="0.571289" y="0.798767" width="103.662" height="28.738" rx="4.10543" fill="white"/>
<g clip-path="url(#clip0_2_3060)">
<path d="M29.589 17.4429C29.2811 17.4429 28.9763 17.3826 28.6918 17.2655C28.4074 17.1483 28.149 16.9766 27.9313 16.7601C27.7136 16.5436 27.5409 16.2866 27.4231 16.0038C27.3053 15.7209 27.2446 15.4178 27.2446 15.1116C27.2446 14.8054 27.3053 14.5023 27.4231 14.2194C27.5409 13.9366 27.7136 13.6796 27.9313 13.4631C28.149 13.2466 28.4074 13.0749 28.6918 12.9577C28.9763 12.8406 29.2811 12.7803 29.589 12.7803C30.0893 12.7827 30.5797 12.9191 31.0086 13.1753L30.6856 14.0625C30.3554 13.8735 29.9829 13.7697 29.602 13.7607C29.4183 13.7447 29.2333 13.7688 29.0599 13.8311C28.8864 13.8934 28.7287 13.9925 28.5977 14.1216C28.4667 14.2506 28.3655 14.4065 28.3012 14.5784C28.2369 14.7502 28.211 14.934 28.2253 15.1168C28.211 15.2996 28.2369 15.4833 28.3012 15.6552C28.3655 15.8271 28.4667 15.9829 28.5977 16.112C28.7287 16.2411 28.8864 16.3402 29.0599 16.4025C29.2333 16.4648 29.4183 16.4888 29.602 16.4728C30.0028 16.4646 30.3941 16.3497 30.7351 16.14L31.0516 17.0272C30.6131 17.3003 30.1064 17.4457 29.589 17.4468" fill="#664A87"/>
<path d="M34.2581 13.7128C34.0844 13.7193 33.9139 13.7615 33.7574 13.8368C33.6009 13.9121 33.4618 14.0188 33.3488 14.1502C33.2358 14.2816 33.1515 14.4349 33.1011 14.6004C33.0507 14.7659 33.0354 14.9399 33.056 15.1116C33.0285 15.2845 33.039 15.4613 33.0868 15.6297C33.1345 15.7982 33.2185 15.9544 33.3328 16.0875C33.4471 16.2206 33.5891 16.3274 33.749 16.4007C33.9088 16.474 34.0828 16.5119 34.2588 16.5119C34.4348 16.5119 34.6087 16.474 34.7686 16.4007C34.9284 16.3274 35.0704 16.2206 35.1847 16.0875C35.2991 15.9544 35.383 15.7982 35.4308 15.6297C35.4786 15.4613 35.4891 15.2845 35.4615 15.1116C35.482 14.9399 35.4665 14.7658 35.4159 14.6003C35.3654 14.4348 35.2809 14.2816 35.1678 14.1502C35.0548 14.0187 34.9156 13.912 34.759 13.8368C34.6024 13.7615 34.4319 13.7193 34.2581 13.7128ZM34.2399 17.4416C33.9306 17.4537 33.6221 17.4013 33.3344 17.2878C33.0466 17.1744 32.7858 17.0024 32.5688 16.783C32.3517 16.5635 32.1832 16.3013 32.074 16.0132C31.9648 15.7252 31.9173 15.4177 31.9346 15.1103C31.9225 14.8009 31.9749 14.4924 32.0884 14.2041C32.202 13.9158 32.3742 13.654 32.5944 13.4351C32.8145 13.2161 33.0778 13.0449 33.3677 12.9319C33.6576 12.819 33.9679 12.767 34.279 12.779C34.5881 12.7678 34.8963 12.8207 35.1837 12.9344C35.4712 13.0481 35.7317 13.22 35.9487 13.4393C36.1657 13.6586 36.3343 13.9205 36.444 14.2082C36.5536 14.4958 36.6018 14.8031 36.5855 15.1103C36.5972 15.4196 36.5446 15.7279 36.4309 16.016C36.3172 16.3041 36.145 16.5658 35.9249 16.7847C35.7048 17.0035 35.4417 17.1748 35.152 17.2879C34.8623 17.4009 34.5509 17.4533 34.2399 17.4416Z" fill="#664A87"/>
<path d="M41.7044 17.4551L38.9693 15.0072V17.3683H37.917V12.7886L38.059 12.7653L40.7615 15.1937V12.8507H41.8151V17.437L41.7044 17.4551Z" fill="#664A87"/>
<path d="M44.3549 13.8135V14.8121H45.9178V15.7343H44.3549V17.3739H43.3013V12.8525H46.177V13.8135H44.3549Z" fill="#664A87"/>
<path d="M48.4003 12.8525H47.3467V17.3701H48.4003V12.8525Z" fill="#664A87"/>
<path d="M51.5979 14.6629L51.1446 15.7469H52.0433L51.5979 14.6629ZM52.7193 17.3685L52.378 16.5487H50.8151L50.4752 17.3685H49.3916L51.5302 12.8134H51.6721L53.8198 17.3685H52.7193Z" fill="#664A87"/>
<path d="M58.5833 17.4551L55.8482 15.0072V17.3683H54.7959V12.7886L54.9379 12.7653L57.6404 15.1937V12.8507H58.694V17.437L58.5833 17.4551Z" fill="#664A87"/>
<path d="M61.4772 16.4155H63.6522V17.3714H59.797L59.7671 17.26L62.0164 13.8148H59.9325V12.8525H63.7017L63.7316 12.9703L61.4772 16.4155Z" fill="#664A87"/>
<path d="M66.6887 14.6629L66.2368 15.7469H67.1354L66.6887 14.6629ZM67.8114 17.3685L67.4701 16.5487H65.9073L65.5673 17.3685H64.4941L66.6327 12.8134H66.7747L68.9132 17.3685H67.8114Z" fill="#664A87"/>
<path d="M72.6908 13.0987C72.4327 13.1024 72.1781 13.1582 71.9423 13.2629C71.7066 13.3675 71.4948 13.5187 71.3197 13.7074C71.1446 13.896 71.01 14.1181 70.9239 14.3602C70.8379 14.6022 70.8023 14.8591 70.8193 15.1153C70.7988 15.3722 70.8321 15.6305 70.9169 15.874C71.0017 16.1175 71.1362 16.3409 71.3121 16.5302C71.4879 16.7194 71.7013 16.8705 71.9387 16.9738C72.1761 17.077 72.4324 17.1304 72.6915 17.1304C72.9506 17.1304 73.2069 17.077 73.4443 16.9738C73.6817 16.8705 73.8951 16.7194 74.0709 16.5302C74.2468 16.3409 74.3813 16.1175 74.4661 15.874C74.551 15.6305 74.5842 15.3722 74.5637 15.1153C74.5807 14.859 74.5451 14.602 74.459 14.3599C74.3729 14.1178 74.2381 13.8956 74.0629 13.7069C73.8877 13.5183 73.6756 13.367 73.4398 13.2625C73.2039 13.1579 72.9491 13.1022 72.6908 13.0987ZM72.6791 17.4324C72.3776 17.4317 72.0793 17.3706 71.8021 17.2528C71.5248 17.135 71.2743 16.9628 71.0654 16.7465C70.8566 16.5302 70.6937 16.2743 70.5865 15.9941C70.4793 15.7138 70.43 15.4149 70.4416 15.1153C70.457 14.6754 70.6023 14.2498 70.8596 13.8916C71.1168 13.5334 71.4744 13.2586 71.8878 13.1014C72.3013 12.9442 72.7521 12.9116 73.184 13.0078C73.6159 13.1039 74.0097 13.3245 74.3163 13.6419C74.6229 13.9594 74.8286 14.3597 74.9077 14.7927C74.9868 15.2258 74.9359 15.6724 74.7612 16.0768C74.5865 16.4812 74.2958 16.8255 73.9256 17.0666C73.5553 17.3077 73.1217 17.4349 72.6791 17.4324Z" fill="#7E90A2"/>
<path d="M80.6408 17.4369L77.6166 13.6032V17.3696H77.2754V12.8015L77.3561 12.7833L80.3517 16.5743V12.8507H80.6981V17.424L80.6408 17.4369Z" fill="#7E90A2"/>
<path d="M83.2612 17.3701V12.8525H83.609V17.0553H85.8231V17.3701H83.2612Z" fill="#7E90A2"/>
<path d="M88.2599 12.8525H87.9121V17.3701H88.2599V12.8525Z" fill="#7E90A2"/>
<path d="M94.1799 17.4369L91.1557 13.6032V17.3696H90.8145V12.8015L90.8952 12.7833L93.8907 16.5743V12.8507H94.2372V17.424L94.1799 17.4369Z" fill="#7E90A2"/>
<path d="M96.7925 17.3701V12.8525H99.3582V13.1607H97.1441V14.9235H99.1368V15.2317H97.1363V17.0553H99.3504V17.3701H96.7925Z" fill="#7E90A2"/>
<path d="M13.6446 17.5661C13.1669 17.5664 12.6999 17.4258 12.3026 17.162C11.9053 16.8982 11.5956 16.5232 11.4127 16.0844C11.2297 15.6456 11.1818 15.1627 11.2749 14.6967C11.3681 14.2308 11.5981 13.8028 11.9358 13.4669C12.2736 13.131 12.704 12.9023 13.1725 12.8097C13.641 12.7171 14.1266 12.7647 14.5679 12.9466C15.0092 13.1286 15.3863 13.4365 15.6515 13.8316C15.9168 14.2267 16.0582 14.6911 16.0579 15.1662C16.0579 15.4813 15.9955 15.7934 15.8742 16.0846C15.7529 16.3758 15.5752 16.6403 15.3511 16.8632C15.127 17.0861 14.8609 17.2628 14.5681 17.3835C14.2753 17.5041 13.9615 17.5661 13.6446 17.5661ZM13.6446 11.1576C12.8473 11.1573 12.0678 11.3922 11.4047 11.8325C10.7417 12.2728 10.2248 12.8988 9.91952 13.6313C9.61423 14.3637 9.53421 15.1697 9.6896 15.9474C9.84499 16.7251 10.2288 17.4395 10.7925 18.0002C11.3562 18.5609 12.0744 18.9429 12.8564 19.0976C13.6384 19.2524 14.4489 19.1731 15.1855 18.8697C15.9222 18.5664 16.5518 18.0526 16.9948 17.3934C17.4378 16.7341 17.6742 15.9591 17.6742 15.1662C17.6744 14.6398 17.5703 14.1186 17.3679 13.6323C17.1654 13.1459 16.8686 12.704 16.4944 12.3318C16.1202 11.9595 15.6759 11.6642 15.187 11.4628C14.698 11.2613 14.1739 11.1576 13.6446 11.1576Z" fill="#7E90A2"/>
<path d="M13.6369 5.93054C11.7998 5.93054 10.0039 6.4723 8.47636 7.48729C6.94883 8.50229 5.75826 9.94495 5.05522 11.6328C4.35217 13.3207 4.16822 15.178 4.52663 16.9699C4.88504 18.7617 5.76971 20.4076 7.06877 21.6995C8.36783 22.9913 10.0229 23.8711 11.8248 24.2275C13.6266 24.5839 15.4943 24.401 17.1916 23.7018C18.8889 23.0027 20.3396 21.8187 21.3603 20.2997C22.381 18.7806 22.9257 16.9947 22.9257 15.1678C22.9257 14.9599 22.8427 14.7606 22.6949 14.6137C22.5472 14.4667 22.3468 14.3842 22.1378 14.3842C21.9288 14.3842 21.7284 14.4667 21.5806 14.6137C21.4328 14.7606 21.3498 14.9599 21.3498 15.1678C21.3496 16.685 20.8969 18.1681 20.049 19.4295C19.2012 20.6909 17.9962 21.674 16.5865 22.2544C15.1768 22.8348 13.6258 22.9864 12.1294 22.6902C10.633 22.3939 9.25863 21.6631 8.17997 20.59C7.1013 19.517 6.36683 18.15 6.06943 16.6618C5.77203 15.1737 5.92506 13.6312 6.50917 12.2296C7.09327 10.8279 8.08222 9.62998 9.35095 8.78726C10.6197 7.94453 12.1112 7.49486 13.6369 7.49512C13.8456 7.49512 14.0457 7.4127 14.1932 7.26599C14.3407 7.11928 14.4236 6.92031 14.4236 6.71283C14.4236 6.50535 14.3407 6.30638 14.1932 6.15967C14.0457 6.01296 13.8456 5.93054 13.6369 5.93054Z" fill="#664A87"/>
<path d="M13.6381 8.52454C11.8664 8.52454 10.1673 9.22442 8.91455 10.4702C7.6618 11.716 6.95801 13.4057 6.95801 15.1675C6.95801 16.9293 7.6618 18.619 8.91455 19.8648C10.1673 21.1106 11.8664 21.8105 13.6381 21.8105C13.7441 21.8105 13.8491 21.7897 13.9471 21.7494C14.0451 21.709 14.1341 21.6499 14.2091 21.5753C14.284 21.5007 14.3435 21.4122 14.3841 21.3148C14.4247 21.2174 14.4456 21.1129 14.4456 21.0075C14.4456 20.902 14.4247 20.7976 14.3841 20.7002C14.3435 20.6028 14.284 20.5142 14.2091 20.4397C14.1341 20.3651 14.0451 20.3059 13.9471 20.2656C13.8491 20.2252 13.7441 20.2045 13.6381 20.2045C12.6362 20.2047 11.6568 19.9095 10.8237 19.3562C9.99059 18.8029 9.34119 18.0163 8.95762 17.096C8.57406 16.1756 8.47357 15.1628 8.66886 14.1856C8.86415 13.2085 9.34645 12.3109 10.0548 11.6063C10.7631 10.9017 11.6656 10.4219 12.6481 10.2274C13.6307 10.033 14.6492 10.1327 15.5748 10.5139C16.5004 10.895 17.2915 11.5406 17.8481 12.369C18.4047 13.1973 18.7018 14.1712 18.7018 15.1675C18.7102 15.3751 18.799 15.5714 18.9497 15.7153C19.1003 15.8592 19.3011 15.9396 19.51 15.9396C19.7189 15.9396 19.9197 15.8592 20.0703 15.7153C20.2209 15.5714 20.3098 15.3751 20.3181 15.1675C20.3181 13.4057 19.6143 11.716 18.3616 10.4702C17.1088 9.22442 15.4097 8.52454 13.6381 8.52454Z" fill="#BAC621"/>
</g>
<defs>
<clipPath id="clip0_2_3060">
<rect width="95.4513" height="18.4744" fill="white" transform="translate(4.67676 5.93054)"/>
</clipPath>
</defs>
</svg>
