<svg width="48" height="48" viewBox="0 0 48 48" fill="none" xmlns="http://www.w3.org/2000/svg">
<path d="M24.4898 9.28002C29.0885 9.28002 32.1905 11.2267 33.9592 12.8534L40.8708 6.24001C36.6259 2.37334 31.1021 0 24.4898 0C14.9116 0 6.63951 5.38668 2.6123 13.2267L10.5307 19.2534C12.5171 13.4667 18.0137 9.28002 24.4898 9.28002Z" fill="#EA4335"/>
<path d="M48 24.5334C48 22.56 47.8367 21.12 47.483 19.6267H24.4898V28.5334H37.9864C37.7143 30.7467 36.2449 34.0801 32.9796 36.3201L40.7075 42.1867C45.3333 38.0001 48 31.84 48 24.5334Z" fill="#4285F4"/>
<path d="M10.5578 28.7467C10.0408 27.2533 9.74149 25.6533 9.74149 24C9.74149 22.3467 10.0409 20.7467 10.5307 19.2534L2.6123 13.2267C0.952439 16.48 0 20.1333 0 24C0 27.8667 0.952381 31.52 2.61224 34.7733L10.5578 28.7467Z" fill="#FBBC05"/>
<path d="M24.4897 48C31.102 48 36.6531 45.8667 40.7075 42.1867L32.9796 36.3201C30.9116 37.7334 28.136 38.72 24.4897 38.72C18.0135 38.72 12.517 34.5333 10.5578 28.7467L2.6394 34.7733C6.66661 42.6133 14.9115 48 24.4897 48Z" fill="#34A853"/>
</svg>
