<svg width="65" height="30" viewBox="0 0 65 30" fill="none" xmlns="http://www.w3.org/2000/svg">
<rect x="0.132812" y="0.828186" width="64.6606" height="28.738" rx="4.10543" fill="white"/>
<g clip-path="url(#clip0_2_3070)">
<path fill-rule="evenodd" clip-rule="evenodd" d="M18.5748 17.1355C18.8121 17.3394 19.08 17.5047 19.3686 17.6256C19.6215 17.7354 19.8937 17.794 20.1694 17.7979C20.367 17.8077 20.5608 17.741 20.7104 17.6115C20.7777 17.546 20.8303 17.4669 20.8646 17.3794C20.8989 17.292 20.9142 17.1982 20.9095 17.1044C20.9068 16.9077 20.8485 16.7158 20.7414 16.5508C20.5587 16.281 20.3422 16.0356 20.0974 15.8205C19.7818 15.5349 19.5135 15.2013 19.3022 14.8318C19.1562 14.5385 19.0822 14.2146 19.0861 13.8869C19.0701 13.5448 19.1274 13.2031 19.2544 12.885C19.3813 12.5668 19.5748 12.2795 19.8219 12.0423C20.3743 11.5649 21.0901 11.3199 21.8191 11.3587C22.1469 11.3571 22.4737 11.3955 22.7923 11.4731C23.1174 11.556 23.4323 11.6744 23.7315 11.8262L23.4081 13.8036C23.187 13.6456 22.9475 13.5152 22.6948 13.4152C22.4832 13.33 22.2576 13.285 22.0296 13.2824C21.868 13.2723 21.7084 13.3227 21.5818 13.4237C21.5272 13.475 21.4844 13.5375 21.4563 13.6071C21.4283 13.6766 21.4157 13.7513 21.4194 13.8262C21.4194 14.0569 21.6284 14.3794 22.0465 14.7937C22.1002 14.8446 22.1397 14.8841 22.1708 14.9152C22.5082 15.2188 22.7897 15.5793 23.0027 15.9801C23.1421 16.3047 23.2104 16.6553 23.2033 17.0084C23.2231 17.3876 23.1618 17.7667 23.0235 18.1204C22.8851 18.474 22.6729 18.7941 22.401 19.0592C21.7935 19.5849 21.0054 19.8538 20.2033 19.8092C19.8221 19.8118 19.4422 19.7643 19.0734 19.668C18.7558 19.5903 18.4542 19.4579 18.1821 19.2767L18.5748 17.1355ZM28.4024 17.6411H26.6736C26.6743 17.8151 26.6115 17.9833 26.497 18.1143C26.4378 18.17 26.3677 18.2129 26.2912 18.2403C26.2146 18.2678 26.1333 18.2792 26.0521 18.2739C25.9784 18.28 25.9043 18.2705 25.8345 18.2462C25.7647 18.2219 25.7007 18.1832 25.6468 18.1327C25.5481 18.0096 25.5006 17.8534 25.514 17.6962C25.514 17.6341 25.514 17.555 25.5267 17.4491C25.5394 17.3431 25.5535 17.2033 25.5747 17.0253H28.586C28.6199 16.788 28.6425 16.5748 28.658 16.3841C28.6736 16.1934 28.6806 16.0169 28.6806 15.853C28.6942 15.5712 28.6463 15.2898 28.5402 15.0283C28.4341 14.7669 28.2724 14.5316 28.0662 14.3389C27.6042 13.9449 27.0088 13.7427 26.4024 13.7739C26.0057 13.7599 25.6113 13.8398 25.2513 14.0069C24.8912 14.174 24.5757 14.4238 24.3304 14.7358C23.784 15.4757 23.511 16.3822 23.5578 17.3008C23.5104 17.9761 23.73 18.643 24.1694 19.1581C24.4051 19.3822 24.685 19.5548 24.9912 19.6647C25.2974 19.7746 25.6231 19.8195 25.9476 19.7965C26.5718 19.8287 27.1856 19.6273 27.6693 19.2315C27.8906 19.0284 28.0693 18.7833 28.1952 18.5105C28.321 18.2378 28.3914 17.9427 28.4024 17.6426M25.7188 16.0691C25.7563 15.8048 25.8529 15.5523 26.0013 15.3304C26.0574 15.2563 26.1307 15.1969 26.2148 15.1572C26.2989 15.1176 26.3914 15.099 26.4843 15.103C26.5509 15.0978 26.6178 15.1079 26.68 15.1323C26.7421 15.1568 26.7979 15.1951 26.8431 15.2443C26.9311 15.3635 26.9736 15.5103 26.9631 15.6581C26.9631 15.7033 26.9631 15.7513 26.9631 15.7993C26.9631 15.8474 26.9631 15.9406 26.9448 16.0621L25.7188 16.0691ZM28.7795 19.6312L29.6792 13.942H31.6241L31.497 14.7372C31.7041 14.4629 31.9645 14.2333 32.2625 14.0621C32.5479 13.9023 32.8645 13.8059 33.1905 13.7796L32.8741 15.7852H32.8303C32.4406 15.7541 32.0515 15.8535 31.7244 16.0677C31.4507 16.3412 31.2852 16.7044 31.2583 17.0903L30.8628 19.6327L28.7795 19.6312ZM33.5916 13.942H35.6368L35.754 17.4137L36.9701 13.942H39.0139L36.5026 19.6312H34.3091L33.5916 13.942ZM38.4588 19.6312H40.5195L41.4207 13.942H39.3585L38.4588 19.6312ZM41.826 11.7796C41.838 12.1504 41.7077 12.5118 41.4616 12.7895C41.3469 12.9194 41.2051 13.0226 41.0463 13.0919C40.8875 13.1612 40.7154 13.1949 40.5421 13.1906C40.4142 13.1953 40.2867 13.1726 40.1683 13.1238C40.0499 13.0751 39.9433 13.0016 39.8557 12.9081C39.678 12.7065 39.5858 12.4436 39.5986 12.1751C39.5858 11.8017 39.7167 11.4377 39.9645 11.1581C40.0783 11.0273 40.2196 10.9231 40.3783 10.8531C40.537 10.783 40.7091 10.7488 40.8825 10.7528C41.0108 10.7475 41.1386 10.77 41.2574 10.8187C41.3761 10.8675 41.4829 10.9414 41.5704 11.0353C41.7485 11.241 41.8401 11.5078 41.826 11.7796ZM44.4376 15.1369H44.5591C44.7075 15.1461 44.8561 15.1216 44.9938 15.0654C45.1315 15.0091 45.2547 14.9225 45.3542 14.8121C45.5578 14.544 45.6581 14.2116 45.6367 13.8756C45.6446 13.7821 45.6328 13.6879 45.6021 13.5991C45.5715 13.5103 45.5227 13.4289 45.4588 13.3601C45.3032 13.2362 45.1061 13.1766 44.9079 13.1934C44.8835 13.192 44.8589 13.192 44.8345 13.1934C44.7992 13.1934 44.7695 13.1934 44.7469 13.1934L44.4376 15.1369ZM41.4531 19.6312H43.7215L44.2314 16.3544L44.7427 19.6312H47.1438L46.1424 16.0818C46.6497 15.9684 47.0944 15.6652 47.3853 15.2344C47.6864 14.7447 47.834 14.176 47.809 13.6016C47.8399 13.2975 47.7937 12.9904 47.6747 12.7088C47.5557 12.4272 47.3678 12.18 47.1282 11.9901C46.3613 11.6056 45.5026 11.4418 44.648 11.5169H42.7427L41.4531 19.6312ZM52.4135 17.6426C52.4028 17.9427 52.3326 18.2376 52.207 18.5104C52.0814 18.7832 51.9029 19.0283 51.6819 19.2315C51.1982 19.6273 50.5843 19.8287 49.9601 19.7965C49.6357 19.8195 49.3099 19.7746 49.0037 19.6647C48.6976 19.5548 48.4177 19.3822 48.1819 19.1581C47.7426 18.643 47.5229 17.9761 47.5703 17.3008C47.5237 16.3822 47.7967 15.4758 48.3429 14.7358C48.5883 14.4238 48.9038 14.174 49.2638 14.0069C49.6239 13.8398 50.0183 13.7599 50.4149 13.7739C51.0214 13.7427 51.6168 13.9449 52.0788 14.3389C52.2849 14.5316 52.4466 14.7669 52.5527 15.0283C52.6588 15.2898 52.7067 15.5712 52.6932 15.853C52.6932 16.0169 52.6847 16.1934 52.6706 16.3841C52.6565 16.5748 52.6324 16.788 52.5985 17.0253H49.5859C49.5661 17.2033 49.5491 17.3445 49.5392 17.4491C49.5294 17.5536 49.5251 17.6341 49.5251 17.6962C49.5117 17.8534 49.5593 18.0096 49.6579 18.1327C49.7122 18.1831 49.7764 18.2217 49.8465 18.246C49.9165 18.2703 49.9908 18.2798 50.0647 18.2739C50.1458 18.2791 50.2271 18.2677 50.3037 18.2402C50.3802 18.2128 50.4503 18.1699 50.5096 18.1143C50.6241 17.9833 50.6868 17.8151 50.6861 17.6411L52.4135 17.6426ZM49.7299 16.0691H50.9474C50.9601 15.9491 50.9658 15.8587 50.9672 15.8064C50.9686 15.7542 50.9672 15.7033 50.9672 15.6652C50.977 15.5174 50.9345 15.3709 50.8471 15.2513C50.802 15.2021 50.7462 15.1639 50.684 15.1394C50.6219 15.1149 50.555 15.1049 50.4884 15.1101C50.3955 15.1061 50.303 15.1247 50.2189 15.1643C50.1347 15.2039 50.0615 15.2633 50.0053 15.3375C49.8575 15.5597 49.761 15.812 49.7229 16.0762M56.3457 16.2033C56.3569 16.0292 56.3218 15.8552 56.244 15.6991C56.2128 15.6458 56.1676 15.6021 56.1133 15.5727C56.0591 15.5433 55.9977 15.5294 55.9361 15.5324C55.7308 15.5324 55.5562 15.7075 55.4121 16.0578C55.2565 16.4734 55.1831 16.9151 55.196 17.3587C55.1835 17.5324 55.2171 17.7063 55.2934 17.8629C55.325 17.9143 55.3699 17.9561 55.4234 17.984C55.4769 18.0118 55.5369 18.0246 55.5971 18.0211C55.8033 18.0211 55.9813 17.8445 56.1282 17.4928C56.2841 17.0813 56.3579 16.6432 56.3457 16.2033ZM55.8584 19.6383L55.9474 19.0112C55.7438 19.2478 55.5017 19.4483 55.2313 19.6044C55.0037 19.7261 54.7493 19.7892 54.4912 19.788C54.2861 19.7964 54.0822 19.7537 53.8978 19.6637C53.7134 19.5737 53.5542 19.4393 53.4347 19.2725C53.158 18.8392 53.026 18.3294 53.0576 17.8163C53.0212 16.8155 53.2569 15.8236 53.7398 14.9462C53.8908 14.6187 54.1286 14.3386 54.4273 14.1365C54.7261 13.9343 55.0744 13.8178 55.4347 13.7994C55.6767 13.7939 55.9151 13.8586 56.1211 13.9858C56.3412 14.1391 56.523 14.3411 56.6522 14.5762L57.1381 11.5282H59.1832L57.905 19.6298L55.8584 19.6383Z" fill="black"/>
<path d="M18.5748 17.1355C18.8121 17.3394 19.08 17.5047 19.3686 17.6256C19.6215 17.7354 19.8937 17.794 20.1694 17.7979C20.367 17.8077 20.5608 17.741 20.7104 17.6115C20.7777 17.546 20.8303 17.4669 20.8646 17.3794C20.8989 17.292 20.9142 17.1982 20.9095 17.1044C20.9068 16.9077 20.8485 16.7158 20.7414 16.5508C20.5587 16.281 20.3422 16.0356 20.0974 15.8205C19.7818 15.5349 19.5135 15.2013 19.3022 14.8318C19.1562 14.5385 19.0822 14.2146 19.0861 13.8869C19.0701 13.5448 19.1274 13.2031 19.2544 12.885C19.3813 12.5668 19.5748 12.2795 19.8219 12.0423C20.3743 11.5649 21.0901 11.3199 21.8191 11.3587C22.1469 11.3571 22.4737 11.3955 22.7923 11.4731C23.1174 11.556 23.4323 11.6744 23.7315 11.8262L23.4081 13.8036C23.187 13.6456 22.9475 13.5152 22.6948 13.4152C22.4832 13.33 22.2576 13.285 22.0296 13.2824C21.868 13.2723 21.7084 13.3227 21.5818 13.4237C21.5272 13.475 21.4844 13.5375 21.4563 13.6071C21.4283 13.6766 21.4157 13.7513 21.4194 13.8262C21.4194 14.0569 21.6284 14.3794 22.0465 14.7937C22.1002 14.8446 22.1397 14.8841 22.1708 14.9152C22.5082 15.2188 22.7897 15.5793 23.0027 15.9801C23.1421 16.3047 23.2104 16.6553 23.2033 17.0084C23.2231 17.3876 23.1618 17.7667 23.0235 18.1204C22.8851 18.474 22.6729 18.7941 22.401 19.0592C21.7935 19.5849 21.0054 19.8538 20.2033 19.8092C19.8221 19.8118 19.4422 19.7643 19.0734 19.668C18.7558 19.5903 18.4542 19.4579 18.1821 19.2767L18.5748 17.1355ZM28.4024 17.6411H26.6736C26.6743 17.8151 26.6115 17.9833 26.497 18.1143C26.4378 18.17 26.3677 18.2129 26.2912 18.2403C26.2146 18.2678 26.1333 18.2792 26.0521 18.2739C25.9784 18.28 25.9043 18.2705 25.8345 18.2462C25.7647 18.2219 25.7007 18.1832 25.6468 18.1327C25.5481 18.0096 25.5006 17.8534 25.514 17.6962C25.514 17.6341 25.514 17.555 25.5267 17.4491C25.5394 17.3431 25.5535 17.2033 25.5747 17.0253H28.586C28.6199 16.788 28.6425 16.5748 28.658 16.3841C28.6736 16.1934 28.6806 16.0169 28.6806 15.853C28.6942 15.5712 28.6463 15.2898 28.5402 15.0283C28.4341 14.7669 28.2724 14.5316 28.0662 14.3389C27.6042 13.9449 27.0088 13.7427 26.4024 13.7739C26.0057 13.7599 25.6113 13.8398 25.2513 14.0069C24.8912 14.174 24.5757 14.4238 24.3304 14.7358C23.784 15.4757 23.511 16.3822 23.5578 17.3008C23.5104 17.9761 23.73 18.643 24.1694 19.1581C24.4051 19.3822 24.685 19.5548 24.9912 19.6647C25.2974 19.7746 25.6231 19.8195 25.9476 19.7965C26.5718 19.8287 27.1856 19.6273 27.6693 19.2315C27.8908 19.0282 28.0696 18.7829 28.1954 18.5099C28.3213 18.2369 28.3916 17.9416 28.4024 17.6411ZM25.7188 16.0691C25.7563 15.8048 25.8529 15.5523 26.0013 15.3304C26.0574 15.2563 26.1307 15.1969 26.2148 15.1572C26.2989 15.1176 26.3914 15.099 26.4843 15.103C26.5509 15.0978 26.6178 15.1079 26.68 15.1323C26.7421 15.1568 26.7979 15.1951 26.8431 15.2443C26.9311 15.3635 26.9736 15.5103 26.9631 15.6581C26.9631 15.7033 26.9631 15.7513 26.9631 15.7993C26.9631 15.8474 26.9631 15.9406 26.9448 16.0621L25.7188 16.0691ZM28.7795 19.6312L29.6792 13.942H31.6241L31.497 14.7372C31.7041 14.4629 31.9645 14.2333 32.2625 14.0621C32.5479 13.9023 32.8645 13.8059 33.1905 13.7796L32.8741 15.7852H32.8303C32.4406 15.7541 32.0515 15.8535 31.7244 16.0677C31.4507 16.3412 31.2852 16.7044 31.2583 17.0903L30.8628 19.6327L28.7795 19.6312ZM33.5916 13.942H35.6368L35.754 17.4137L36.9701 13.942H39.0139L36.5026 19.6312H34.3091L33.5916 13.942ZM38.4588 19.6312H40.5195L41.4207 13.942H39.3585L38.4588 19.6312ZM41.826 11.7796C41.838 12.1504 41.7077 12.5118 41.4616 12.7895C41.3469 12.9194 41.2051 13.0226 41.0463 13.0919C40.8875 13.1612 40.7154 13.1949 40.5421 13.1906C40.4142 13.1953 40.2867 13.1726 40.1683 13.1238C40.0499 13.0751 39.9433 13.0016 39.8557 12.9081C39.678 12.7065 39.5858 12.4436 39.5986 12.1751C39.5858 11.8017 39.7167 11.4377 39.9645 11.1581C40.0783 11.0273 40.2196 10.9231 40.3783 10.8531C40.537 10.783 40.7091 10.7488 40.8825 10.7528C41.0108 10.7475 41.1386 10.77 41.2574 10.8187C41.3761 10.8675 41.4829 10.9414 41.5704 11.0353C41.7482 11.2407 41.8398 11.5068 41.826 11.7782V11.7796ZM44.4376 15.1369H44.5591C44.7075 15.1461 44.8561 15.1216 44.9938 15.0654C45.1315 15.0091 45.2547 14.9225 45.3543 14.8121C45.5578 14.544 45.6581 14.2116 45.6367 13.8756C45.6446 13.7821 45.6328 13.6879 45.6021 13.5991C45.5715 13.5103 45.5227 13.4289 45.4588 13.3601C45.3032 13.2362 45.1061 13.1766 44.9079 13.1934C44.8835 13.192 44.8589 13.192 44.8345 13.1934C44.7992 13.1934 44.7695 13.1934 44.7469 13.1934L44.4376 15.1369ZM41.4531 19.6312H43.7215L44.2314 16.3544L44.7427 19.6312H47.1438L46.1424 16.0818C46.6497 15.9684 47.0944 15.6652 47.3853 15.2344C47.6864 14.7447 47.834 14.176 47.809 13.6016C47.8399 13.2975 47.7937 12.9904 47.6747 12.7088C47.5557 12.4272 47.3678 12.18 47.1282 11.9901C46.3613 11.6056 45.5026 11.4418 44.648 11.5169H42.7427L41.4531 19.6312ZM52.4135 17.6426C52.4028 17.9427 52.3326 18.2376 52.207 18.5104C52.0814 18.7832 51.903 19.0283 51.6819 19.2315C51.1982 19.6273 50.5843 19.8287 49.9602 19.7965C49.6357 19.8195 49.3099 19.7746 49.0037 19.6647C48.6976 19.5548 48.4177 19.3822 48.1819 19.1581C47.7426 18.643 47.523 17.9761 47.5703 17.3008C47.5237 16.3822 47.7967 15.4758 48.3429 14.7358C48.5883 14.4238 48.9038 14.174 49.2638 14.0069C49.6239 13.8398 50.0183 13.7599 50.4149 13.7739C51.0214 13.7427 51.6168 13.9449 52.0788 14.3389C52.2849 14.5316 52.4466 14.7669 52.5527 15.0283C52.6588 15.2898 52.7067 15.5712 52.6932 15.853C52.6932 16.0169 52.6847 16.1934 52.6706 16.3841C52.6565 16.5748 52.6324 16.788 52.5986 17.0253H49.5859C49.5661 17.2033 49.5491 17.3445 49.5393 17.4491C49.5294 17.5536 49.5251 17.6341 49.5251 17.6962C49.5117 17.8534 49.5593 18.0096 49.6579 18.1327C49.7122 18.1831 49.7764 18.2217 49.8465 18.246C49.9165 18.2703 49.9908 18.2798 50.0647 18.2739C50.1458 18.2791 50.2271 18.2677 50.3037 18.2402C50.3802 18.2128 50.4503 18.1699 50.5096 18.1143C50.6241 17.9833 50.6868 17.8151 50.6861 17.6411L52.4135 17.6426ZM49.7299 16.0691H50.9474C50.9601 15.9491 50.9658 15.8587 50.9672 15.8064C50.9686 15.7542 50.9672 15.7033 50.9672 15.6652C50.977 15.5174 50.9345 15.3709 50.8471 15.2513C50.802 15.2021 50.7462 15.1639 50.684 15.1394C50.6219 15.1149 50.555 15.1049 50.4884 15.1101C50.3955 15.1061 50.303 15.1247 50.2189 15.1643C50.1347 15.2039 50.0615 15.2633 50.0054 15.3375C49.861 15.5582 49.7669 15.808 49.7299 16.0691ZM56.3528 16.1962C56.3639 16.0221 56.3289 15.8482 56.2511 15.692C56.2199 15.6387 56.1747 15.595 56.1204 15.5656C56.0661 15.5362 56.0048 15.5223 55.9432 15.5253C55.7379 15.5253 55.5632 15.7005 55.4192 16.0508C55.2636 16.4663 55.1902 16.9081 55.2031 17.3516C55.1906 17.5253 55.2242 17.6993 55.3005 17.8558C55.3321 17.9072 55.377 17.949 55.4305 17.9769C55.484 18.0048 55.544 18.0176 55.6042 18.014C55.8104 18.014 55.9884 17.8375 56.1353 17.4858C56.2908 17.0737 56.3642 16.6351 56.3514 16.1948L56.3528 16.1962ZM55.8655 19.6312L55.9545 19.0041C55.7508 19.2407 55.5087 19.4413 55.2384 19.5973C55.0107 19.7191 54.7564 19.7822 54.4983 19.781C54.2932 19.7894 54.0893 19.7467 53.9049 19.6567C53.7204 19.5667 53.5613 19.4322 53.4418 19.2654C53.1651 18.8322 53.033 18.3223 53.0647 17.8092C53.0282 16.8084 53.264 15.8165 53.7468 14.9392C53.8979 14.6116 54.1356 14.3316 54.4344 14.1294C54.7331 13.9273 55.0815 13.8107 55.4418 13.7923C55.6838 13.7868 55.9222 13.8516 56.1282 13.9787C56.3483 14.132 56.5301 14.3341 56.6593 14.5691L57.1451 11.5211H59.1903L57.905 19.6298L55.8655 19.6312Z" stroke="#1E120D" stroke-width="0.0164217" stroke-miterlimit="22.926"/>
<path fill-rule="evenodd" clip-rule="evenodd" d="M10.3964 9.03906C11.6144 9.03906 12.805 9.40023 13.8177 10.0769C14.8304 10.7536 15.6197 11.7153 16.0858 12.8406C16.5519 13.9658 16.6739 15.204 16.4362 16.3986C16.1986 17.5932 15.6121 18.6904 14.7509 19.5517C13.8897 20.4129 12.7924 20.9994 11.5978 21.237C10.4033 21.4746 9.16506 21.3527 8.03981 20.8866C6.91455 20.4205 5.95278 19.6312 5.27612 18.6185C4.59945 17.6058 4.23828 16.4152 4.23828 15.1972C4.23828 13.564 4.88708 11.9976 6.04196 10.8427C7.19684 9.68787 8.76319 9.03906 10.3964 9.03906Z" fill="black"/>
<path d="M10.3964 21.3554C13.7975 21.3554 16.5546 18.5983 16.5546 15.1972C16.5546 11.7962 13.7975 9.03906 10.3964 9.03906C6.99538 9.03906 4.23828 11.7962 4.23828 15.1972C4.23828 18.5983 6.99538 21.3554 10.3964 21.3554Z" stroke="#1E120D" stroke-width="0.0102636" stroke-miterlimit="22.926"/>
<mask id="mask0_2_3070" style="mask-type:luminance" maskUnits="userSpaceOnUse" x="4" y="13" width="13" height="4">
<path d="M8.79749 15.1945C8.79693 15.5129 8.89084 15.8242 9.06733 16.0892C9.24383 16.3541 9.49496 16.5608 9.78896 16.6829C10.0829 16.8051 10.4066 16.8373 10.7189 16.7754C11.0312 16.7135 11.3181 16.5604 11.5433 16.3354C11.7685 16.1104 11.9219 15.8236 11.984 15.5114C12.0462 15.1991 12.0143 14.8755 11.8924 14.5814C11.7705 14.2873 11.5641 14.0359 11.2993 13.8592C11.0345 13.6825 10.7232 13.5883 10.4048 13.5886C9.97889 13.589 9.57049 13.7582 9.26917 14.0593C8.96786 14.3603 8.79823 14.7686 8.79749 15.1945ZM5.75655 13.3951L7.11953 14.7581H4.26221V15.6309H7.11953L5.75655 16.9953H6.98959L8.78901 15.1945L6.98959 13.3951H5.75655ZM13.837 13.3951L12.0376 15.1945L13.8426 16.9953H15.0757L13.7113 15.6309H16.57V14.7581H13.7014L15.0658 13.3951H13.837Z" fill="white"/>
</mask>
<g mask="url(#mask0_2_3070)">
<path d="M16.5644 13.3951H4.26221V16.9953H16.5644V13.3951Z" fill="url(#paint0_linear_2_3070)"/>
</g>
<mask id="mask1_2_3070" style="mask-type:luminance" maskUnits="userSpaceOnUse" x="8" y="16" width="5" height="6">
<path d="M8.6001 18.6203V19.8534L9.96449 18.489V21.3477H10.836V18.489L12.1989 19.8548V18.6218L10.3995 16.8209L8.6001 18.6203Z" fill="white"/>
</mask>
<g mask="url(#mask1_2_3070)">
<path d="M12.1989 16.8209H8.6001V21.3477H12.1989V16.8209Z" fill="url(#paint1_linear_2_3070)"/>
</g>
<mask id="mask2_2_3070" style="mask-type:luminance" maskUnits="userSpaceOnUse" x="8" y="9" width="5" height="5">
<path d="M9.96449 9.0481V11.9054L8.6001 10.5424V11.7755L10.3995 13.5735L12.1989 11.7741V10.5424L10.836 11.9054V9.0481H9.96449Z" fill="white"/>
</mask>
<g mask="url(#mask2_2_3070)">
<path d="M12.1989 9.0481H8.6001V13.5735H12.1989V9.0481Z" fill="url(#paint2_linear_2_3070)"/>
</g>
</g>
<defs>
<linearGradient id="paint0_linear_2_3070" x1="-0.70787" y1="31.6844" x2="0.70688" y2="31.6844" gradientUnits="userSpaceOnUse">
<stop stop-color="#E59A37"/>
<stop offset="0.1" stop-color="#E59A37"/>
<stop offset="0.47" stop-color="#EECD00"/>
<stop offset="0.52" stop-color="#EECD00"/>
<stop offset="0.58" stop-color="#EECD00"/>
<stop offset="0.88" stop-color="#E49D36"/>
<stop offset="1" stop-color="#E59A37"/>
</linearGradient>
<linearGradient id="paint1_linear_2_3070" x1="-0.710113" y1="31.6869" x2="0.700634" y2="31.6869" gradientUnits="userSpaceOnUse">
<stop stop-color="#4080B4"/>
<stop offset="0.58" stop-color="#7390C2"/>
<stop offset="1" stop-color="#E5E9EA"/>
</linearGradient>
<linearGradient id="paint2_linear_2_3070" x1="-0.710113" y1="31.6886" x2="0.700634" y2="31.6886" gradientUnits="userSpaceOnUse">
<stop stop-color="#4A9970"/>
<stop offset="0.58" stop-color="#89B894"/>
<stop offset="1" stop-color="#E1E9E5"/>
</linearGradient>
<clipPath id="clip0_2_3070">
<rect width="56.4497" height="18.4744" fill="white" transform="translate(4.23828 5.95996)"/>
</clipPath>
</defs>
</svg>
