<svg width="48" height="30" viewBox="0 0 48 30" fill="none" xmlns="http://www.w3.org/2000/svg">
<rect x="0.785156" y="0.7771" width="47.2125" height="28.738" rx="4.10543" fill="white"/>
<g clip-path="url(#clip0_2_3074)">
<path d="M20.2786 21.1451H15.1704V8.98895H20.4623C22.944 8.98895 23.8072 11.0099 22.552 12.8747L21.9577 13.7564C26.1196 15.9179 24.7669 21.1462 20.2765 21.1462M19.67 14.3363L20.684 12.8224C20.8822 12.5707 20.9905 12.2601 20.9919 11.9397C20.9805 11.574 20.8275 11.2271 20.5651 10.972C20.3028 10.717 19.9517 10.5738 19.5858 10.5726H18.0329V19.5122H18.8951C19.2427 19.5446 19.5931 19.4989 19.9207 19.3784C20.2484 19.2579 20.5449 19.0656 20.7886 18.8157C21.0324 18.5658 21.2171 18.2645 21.3294 17.934C21.4416 17.6034 21.4785 17.2519 21.4374 16.9053C21.512 16.335 21.373 15.7574 21.047 15.2836C20.7211 14.8098 20.2313 14.4734 19.672 14.3394" fill="#004290"/>
<path d="M9.99676 21.1451H4.89062V8.98895H10.1836C12.6643 8.98895 13.5295 11.0099 12.2722 12.8747L11.679 13.7564C15.8398 15.9179 14.4871 21.1451 9.99676 21.1451ZM9.39018 14.3363L10.4042 12.8224C10.6024 12.5707 10.7107 12.2601 10.7121 11.9397C10.7012 11.5745 10.549 11.2277 10.2874 10.9725C10.0259 10.7173 9.67554 10.5736 9.31012 10.5716H7.75109V19.5112H8.61425C8.96176 19.5434 9.31208 19.4976 9.63959 19.377C9.96709 19.2564 10.2635 19.0642 10.5071 18.8143C10.7507 18.5643 10.9354 18.2631 11.0476 17.9327C11.1598 17.6022 11.1966 17.2508 11.1555 16.9042C11.2302 16.334 11.0911 15.7563 10.7652 15.2826C10.4392 14.8088 9.94942 14.4724 9.39018 14.3383" fill="#004290"/>
<path d="M32.3595 8.98895H34.2778L30.5685 21.14H27.6557L23.6816 8.98895H25.8288C26.6581 8.98895 26.8757 9.20346 27.3098 10.5798L29.6109 18.2221L32.3595 8.98895Z" fill="#004290"/>
<path d="M40.37 10.2268C40.0272 9.21275 39.7962 8.98798 38.8982 8.98798H36.5755L32.855 21.1411H34.7507L35.5481 18.5167H39.9697L40.7713 21.1401H44.0556L40.37 10.2268ZM36.0808 16.737L37.7394 11.1946L39.4226 16.737H36.0808Z" fill="#004290"/>
</g>
<defs>
<clipPath id="clip0_2_3074">
<rect width="39.0016" height="18.4744" fill="white" transform="translate(4.89062 5.90887)"/>
</clipPath>
</defs>
</svg>
