<svg width="75" height="30" viewBox="0 0 75 30" fill="none" xmlns="http://www.w3.org/2000/svg">
<rect x="0.571289" y="0.7771" width="73.8978" height="28.738" rx="4.10543" fill="white"/>
<g clip-path="url(#clip0_2_3073)">
<path d="M20.0711 8.10017C20.0136 9.12653 19.171 9.81316 18.7276 10.6774C18.5398 11.1905 18.0902 11.4984 17.77 11.9624C17.4754 12.2611 17.2037 12.5815 16.9571 12.921C17.0002 13.1601 17.2548 13.2289 17.4005 13.4003C17.7269 13.5963 17.7628 13.9668 18.0471 14.1906C18.2134 14.1906 18.2134 14.4379 18.3951 14.4092C18.762 14.8169 19.1015 15.2486 19.4112 15.7014C19.4569 15.8694 19.5503 16.0205 19.6801 16.1366C19.9336 16.506 20.144 16.8991 20.4047 17.2768C20.4416 17.6976 20.7978 17.9789 20.9066 18.372C21.0656 18.5772 21.1303 18.8297 21.2771 19.0401C21.5008 19.5338 21.6537 20.049 21.9216 20.5212C21.9375 20.5726 21.9394 20.6273 21.9269 20.6797C21.9144 20.732 21.8882 20.7801 21.8508 20.8188C21.7482 20.8978 21.6681 20.7531 21.5532 20.7757C20.9552 20.5435 20.3811 20.2537 19.8391 19.9105C19.2726 19.4537 18.6486 19.1274 18.0943 18.6481C17.8768 18.5895 17.7864 18.3401 17.5812 18.2375C17.0454 17.905 16.6164 17.4257 16.0714 17.1136C15.824 16.9258 15.5777 16.7442 15.3304 16.5481C15.1425 16.5245 15.0768 16.308 14.8952 16.2402C14.4846 15.9929 14.1193 15.6521 13.7046 15.4191C13.6687 15.4766 13.7046 15.5638 13.6687 15.6244C13.3926 15.8943 13.4634 16.308 13.2705 16.6056C13.2622 17.0326 12.9625 17.3466 12.8414 17.7233C12.5007 18.333 12.203 18.9549 11.8469 19.5595C11.4781 20.2516 11.0084 20.8849 10.4531 21.4387C10.3131 21.5979 10.1459 21.731 9.95942 21.8318C9.87937 21.8092 9.76339 21.8236 9.74184 21.723C9.66281 21.5711 9.76339 21.3381 9.65459 21.1996C9.70737 20.9762 9.73424 20.7476 9.73465 20.5181L9.69873 20.4154C9.70591 20.0962 9.865 19.8273 9.80136 19.501C9.88372 19.292 9.93289 19.0714 9.94711 18.8472C10.056 18.567 10.1295 18.2742 10.1657 17.9758C10.2597 17.7901 10.2971 17.581 10.2735 17.3743C10.3464 17.1855 10.3618 16.9638 10.5557 16.8222C10.5855 16.698 10.5557 16.5758 10.5773 16.4445C10.7754 15.8492 11.0145 15.2765 11.1664 14.6658C11.1664 14.6227 11.1233 14.6073 11.0935 14.6011C10.6843 14.6299 10.2732 14.6154 9.86705 14.558C9.21543 14.5444 8.56658 14.4688 7.92929 14.3322C7.65763 14.3243 7.3896 14.2676 7.13796 14.1649C6.9796 14.1939 6.81634 14.179 6.66584 14.1218C6.3682 13.9771 6.00487 13.9986 5.70722 13.8385C5.48245 13.8673 5.32336 13.7215 5.12014 13.701C4.92411 13.7143 4.81224 13.5491 4.67676 13.4393V13.3726C5.0703 12.9555 5.58214 12.6689 6.14342 12.5515C6.6566 12.3934 7.23136 12.3791 7.76917 12.2692C8.10993 12.2118 8.48044 12.3052 8.82222 12.2477C9.43803 12.2621 10.0343 12.3647 10.643 12.3791C10.8379 12.435 11.0375 12.4735 11.2393 12.494L11.2311 12.4078L10.6584 11.6237C10.3699 11.1525 10.1178 10.6602 9.904 10.1508C9.77263 9.99072 9.89682 9.75055 9.79521 9.57607C9.78802 9.49704 9.85268 9.43751 9.88963 9.3708C10.0128 9.31948 10.1503 9.40569 10.2735 9.32564C10.643 9.41391 10.9858 9.54425 11.3553 9.6161C11.7509 9.75284 12.1267 9.94127 12.473 10.1765C12.9536 10.4219 13.3864 10.7514 13.7508 11.1495C13.7986 11.1865 13.8545 11.2116 13.914 11.2227C13.9734 11.2338 14.0346 11.2305 14.0926 11.2131C14.1952 11.1987 14.2157 11.0766 14.3102 11.0397C14.7597 10.7564 15.2688 10.5973 15.7101 10.2843C15.8928 10.1026 16.1822 10.079 16.291 9.83369C16.4216 9.75825 16.5591 9.69536 16.7016 9.64586C16.9508 9.4543 17.2124 9.27943 17.4847 9.12242C17.6234 9.09795 17.7534 9.03822 17.8624 8.94897C18.313 8.70264 18.7861 8.49839 19.212 8.21512C19.3075 7.96161 19.5908 8.01908 19.793 7.96161C19.8956 7.98419 20.0331 7.96982 20.0762 8.09914" fill="#0097D9"/>
<path d="M9.30785 15.1168C9.45359 15.2194 9.4464 15.4247 9.57675 15.5273L9.64141 15.9758L9.31503 16.451C9.10137 16.5844 8.85324 16.6521 8.60145 16.6457C8.34966 16.6393 8.10528 16.5591 7.89866 16.4151C7.79752 16.3193 7.72397 16.1981 7.6857 16.0641C7.64742 15.9301 7.64582 15.7883 7.68107 15.6536L7.834 15.243C7.92124 15.1845 8.03927 15.1701 8.09469 15.0685C8.31615 14.977 8.55212 14.9255 8.79159 14.9166C8.96607 14.9762 9.22676 14.8797 9.30477 15.1219" fill="#F8BD0D"/>
<path d="M8.2331 17.7687C8.36448 17.7687 8.4589 17.8631 8.58206 17.8405C8.75552 17.9062 8.73499 18.1166 8.91563 18.1669C9.04709 18.4453 9.14693 18.7376 9.21327 19.0383C9.16298 19.2127 9.3077 19.3143 9.25741 19.4745L9.3077 19.5022C9.31815 19.677 9.29084 19.852 9.22764 20.0153C9.2244 20.3078 9.13633 20.593 8.97413 20.8364C8.87868 20.8939 8.83558 21.0612 8.70523 21.0325C8.4743 21.1053 8.45172 21.4533 8.16844 21.4102C7.98678 21.5467 7.73942 21.4676 7.52184 21.4748C7.39867 21.4102 7.22419 21.4245 7.13695 21.3157C6.91632 21.2105 6.71313 21.072 6.53448 20.9052C6.46264 20.7451 6.29534 20.6732 6.27378 20.4947C6.33844 20.275 6.20194 20.079 6.25942 19.8624L6.21631 19.4981L6.35281 18.874C6.5858 18.7509 6.52114 18.4635 6.75309 18.3814C6.89884 18.0468 7.24575 17.9708 7.51568 17.8077C7.61831 17.7851 7.73942 17.8446 7.82359 17.7502C7.9683 17.7286 8.10583 17.8805 8.23413 17.7645" fill="#E86421"/>
<path d="M68.623 20.4242H28.3672V20.6305H68.623V20.4242Z" fill="#1E120D"/>
<path fill-rule="evenodd" clip-rule="evenodd" d="M24.97 9.14233C24.657 9.14233 24.4014 9.52722 24.4014 9.99524C24.3862 10.1087 24.4011 10.2241 24.4445 10.33C24.4879 10.4359 24.5583 10.5286 24.6488 10.5987C24.8469 10.6829 25.1024 10.8738 25.1024 11.4516C25.1017 11.7059 25.0374 11.9559 24.9156 12.1791C24.7937 12.4022 24.618 12.5914 24.4045 12.7295C24.3142 12.8249 24.347 13.1277 24.4866 13.1554C24.9162 12.9454 25.2713 12.6091 25.5043 12.1916C25.7373 11.774 25.837 11.2952 25.7901 10.8194C25.7901 9.6237 25.3128 9.14233 24.97 9.14233ZM26.7754 9.14233C26.4613 9.14233 26.2058 9.52722 26.2058 9.99524C26.1909 10.1094 26.2063 10.2254 26.2504 10.3317C26.2945 10.438 26.3659 10.5308 26.4572 10.6008C26.6553 10.685 26.9109 10.8759 26.9109 11.4537C26.9098 11.7082 26.8451 11.9585 26.7226 12.1816C26.6002 12.4048 26.424 12.5938 26.2099 12.7315C26.1196 12.827 26.1524 13.1297 26.293 13.1574C26.7223 12.9472 27.0771 12.6108 27.3099 12.1933C27.5427 11.7758 27.6423 11.2972 27.5955 10.8215C27.5955 9.62575 27.1172 9.14439 26.7795 9.14439" fill="#1E120D"/>
<path fill-rule="evenodd" clip-rule="evenodd" d="M28.4395 10.2149C28.8798 10.2149 29.1127 10.5454 29.1405 11.1089C29.1815 11.6303 29.2503 12.6608 29.2503 13.4582V17.9106C29.2583 17.9878 29.2501 18.0659 29.2262 18.1398C29.2023 18.2136 29.1633 18.2817 29.1116 18.3397C29.06 18.3976 28.9968 18.4442 28.9261 18.4763C28.8554 18.5085 28.7788 18.5255 28.7012 18.5264V18.8004C29.0994 18.8004 29.4843 18.7604 29.8825 18.7604C30.2807 18.7604 30.7036 18.8004 31.1193 18.8004V18.5264C30.6933 18.4576 30.5835 18.2113 30.5835 17.7433V12.4062C30.5835 11.1418 30.6235 9.79517 30.6379 9.05414H30.3639C29.7992 9.48424 29.139 9.77156 28.4395 9.89165V10.2149Z" fill="#1E120D"/>
<path fill-rule="evenodd" clip-rule="evenodd" d="M34.8036 17.8963C34.5253 18.0632 34.2041 18.1446 33.8799 18.1303C33.7362 18.1278 33.5945 18.0969 33.4627 18.0395C33.331 17.9821 33.2119 17.8992 33.1123 17.7957C33.0126 17.6921 32.9344 17.5699 32.8821 17.4361C32.8298 17.3022 32.8044 17.1594 32.8074 17.0157C32.801 16.848 32.8308 16.6809 32.8946 16.5257C32.9585 16.3706 33.0549 16.2309 33.1775 16.1163C33.3 16.0016 33.4458 15.9146 33.6049 15.8612C33.7639 15.8078 33.9326 15.7892 34.0995 15.8067C34.3207 15.8112 34.5411 15.8342 34.7585 15.8754L34.8036 17.8963ZM32.4081 14.5432C32.5411 14.304 32.7402 14.1081 32.9815 13.9789C33.2228 13.8497 33.4962 13.7926 33.7691 13.8145C34.7041 13.8145 34.7574 14.6356 34.7574 15.3818C34.5655 15.3818 34.3325 15.3397 34.1129 15.3397C32.8618 15.3397 31.4741 15.9031 31.4741 17.3595C31.4877 17.5876 31.5471 17.8105 31.6486 18.0151C31.7501 18.2198 31.8917 18.4019 32.065 18.5507C32.2383 18.6995 32.4398 18.8119 32.6574 18.8813C32.875 18.9507 33.1044 18.9756 33.3318 18.9545C33.8967 18.9047 34.4288 18.6678 34.8437 18.2812C34.9589 18.4741 35.1192 18.6361 35.3109 18.7534C35.5025 18.8706 35.7197 18.9397 35.9439 18.9545L36.9703 18.1334L36.765 17.9282C36.6712 17.957 36.5745 17.9749 36.4766 17.9815C36.1748 17.9815 36.066 17.804 36.066 17.1728V16.6873C36.0804 15.9031 36.1215 15.1888 36.1215 14.6951C36.1215 13.3198 35.0777 12.9914 33.8542 12.9914C33.2545 12.9871 32.6574 13.0704 32.0817 13.2387V14.5432H32.4081Z" fill="#1E120D"/>
<path fill-rule="evenodd" clip-rule="evenodd" d="M47.2472 9.61066C46.1361 9.24043 44.9718 9.05494 43.8007 9.06156C43.1266 9.01552 42.4502 9.10865 41.8136 9.33515C41.1771 9.56165 40.5939 9.91667 40.1003 10.3782C39.6068 10.8396 39.2135 11.3977 38.9448 12.0177C38.6761 12.6376 38.5379 13.3062 38.5386 13.9819C38.5386 16.4554 40.3388 18.9823 44.434 18.9823C45.3352 18.9672 46.2326 18.8616 47.1128 18.6672L47.5397 17.1421L47.1128 16.9645C46.8226 17.4195 46.4191 17.7911 45.9419 18.043C45.4647 18.295 44.9302 18.4185 44.3909 18.4014C43.2506 18.4014 40.4476 17.7415 40.4476 13.8659C40.4476 11.5566 41.437 9.63426 43.8274 9.63426C44.4465 9.58569 45.0651 9.73402 45.5949 10.0581C46.1247 10.3821 46.5384 10.8653 46.7772 11.4386H47.354L47.2472 9.61066Z" fill="#1E120D"/>
<path fill-rule="evenodd" clip-rule="evenodd" d="M51.5461 17.8963C51.2677 18.0631 50.9466 18.1444 50.6224 18.1303C50.4787 18.1277 50.337 18.0967 50.2054 18.0392C50.0737 17.9818 49.9547 17.8989 49.8551 17.7954C49.7554 17.6919 49.6772 17.5697 49.6248 17.4359C49.5725 17.3021 49.547 17.1594 49.5498 17.0157C49.5435 16.848 49.5732 16.6809 49.6371 16.5257C49.701 16.3706 49.7974 16.2309 49.92 16.1163C50.0425 16.0016 50.1882 15.9146 50.3473 15.8612C50.5064 15.8078 50.6751 15.7892 50.842 15.8067C51.0635 15.8112 51.2843 15.8342 51.502 15.8754L51.5461 17.8963ZM49.1547 14.5432C49.2875 14.304 49.4863 14.1081 49.7275 13.9788C49.9686 13.8496 50.2419 13.7926 50.5146 13.8145C51.4507 13.8145 51.5051 14.6356 51.5051 15.3818C51.3131 15.3818 51.0791 15.3397 50.8584 15.3397C49.6073 15.3397 48.2207 15.9032 48.2207 17.3596C48.2343 17.5873 48.2936 17.81 48.3949 18.0144C48.4962 18.2188 48.6375 18.4007 48.8105 18.5495C48.9835 18.6982 49.1846 18.8107 49.4018 18.8803C49.6191 18.9499 49.8481 18.9751 50.0753 18.9545C50.6403 18.9051 51.1725 18.6681 51.5872 18.2812C51.702 18.4742 51.8621 18.6363 52.0536 18.7536C52.2451 18.8709 52.4623 18.9398 52.6864 18.9545L53.7179 18.1334L53.5126 17.9282C53.4188 17.957 53.3221 17.9749 53.2242 17.9815C52.9214 17.9815 52.8137 17.804 52.8137 17.1728V16.6873C52.827 15.9032 52.8681 15.1888 52.8681 14.6951C52.8681 13.3198 51.8232 12.9914 50.6008 12.9914C50.0014 12.987 49.4046 13.0704 48.8293 13.2387V14.5432H49.1547Z" fill="#1E120D"/>
<path fill-rule="evenodd" clip-rule="evenodd" d="M55.6993 12.9912C55.1465 13.3088 54.5484 13.5403 53.9258 13.6778V13.9529C54.0547 13.9543 54.1799 13.9962 54.2838 14.0726C54.3876 14.149 54.4649 14.2561 54.5046 14.3788C54.6645 14.9742 54.7289 15.5912 54.6955 16.2067V17.9105C54.6955 18.3775 54.5436 18.4463 54.2132 18.5263V18.8004C54.5847 18.788 54.9573 18.7603 55.3278 18.7603C55.7383 18.7603 56.1489 18.8004 56.5594 18.8004V18.5263C56.2443 18.4442 56.0237 18.3754 56.0237 17.9105V15.904C56.0237 14.775 55.9693 13.568 55.9693 12.9912H55.6993ZM54.5437 11.3695C54.5321 11.5216 54.5666 11.6736 54.6428 11.8057C54.7189 11.9379 54.8332 12.044 54.9705 12.1102C55.1079 12.1764 55.262 12.1997 55.4128 12.177C55.5636 12.1543 55.7041 12.0867 55.8159 11.983C55.9277 11.8792 56.0056 11.7442 56.0395 11.5955C56.0733 11.4468 56.0616 11.2914 56.0058 11.1494C55.95 11.0075 55.8527 10.8857 55.7266 10.7999C55.6006 10.7141 55.4515 10.6683 55.299 10.6685C55.2033 10.6644 55.1077 10.6793 55.0177 10.7124C54.9278 10.7455 54.8453 10.7961 54.775 10.8613C54.7047 10.9265 54.6481 11.005 54.6084 11.0922C54.5687 11.1795 54.5467 11.2737 54.5437 11.3695Z" fill="#1E120D"/>
<path fill-rule="evenodd" clip-rule="evenodd" d="M56.9478 18.8028C57.2495 18.7895 57.5369 18.7618 57.8397 18.7618C58.1969 18.7618 58.5684 18.7895 58.9256 18.8028V18.5278C58.747 18.5011 58.6382 18.4323 58.6382 18.2127C58.6649 18.0316 58.73 17.8584 58.8291 17.7046L59.5712 16.7008L60.3132 17.759C60.4159 17.8992 60.4908 18.0577 60.5339 18.226C60.5302 18.3008 60.5005 18.3719 60.4499 18.427C60.3993 18.4821 60.3309 18.5178 60.2568 18.5278V18.8028C60.6673 18.7895 61.0686 18.7618 61.4822 18.7618C61.8959 18.7618 62.292 18.7895 62.7057 18.8028V18.5278C62.3529 18.3736 62.0521 18.1209 61.8394 17.8001L60.3553 15.733L61.5212 14.2489C61.781 13.8396 62.1832 13.5412 62.6502 13.4114V13.1425C62.2931 13.1558 61.9215 13.1825 61.5643 13.1825C61.2072 13.1825 60.8367 13.1558 60.4672 13.1425V13.4165C60.6848 13.4986 60.85 13.5951 60.85 13.8568C60.8231 14.0233 60.7523 14.1795 60.6447 14.3094L59.9725 15.2034L59.2171 14.177C59.1179 14.0504 59.0602 13.8963 59.0518 13.7357C59.0518 13.5304 59.176 13.5027 59.3392 13.4206V13.1425C58.9287 13.1558 58.5181 13.1825 58.1076 13.1825C57.697 13.1825 57.268 13.1558 56.8564 13.1425V13.4165C57.1697 13.5331 57.4358 13.7495 57.6139 14.0323L59.1945 16.1764L57.8602 17.8812C57.6529 18.2048 57.3286 18.4357 56.955 18.5257L56.9478 18.8028Z" fill="#1E120D"/>
<path fill-rule="evenodd" clip-rule="evenodd" d="M66.0744 17.8963C65.7962 18.0634 65.4749 18.1448 65.1507 18.1303C64.8615 18.1236 64.5867 18.0025 64.3866 17.7936C64.1866 17.5847 64.0775 17.3049 64.0832 17.0157C64.0771 16.8481 64.1069 16.681 64.1709 16.5259C64.2348 16.3708 64.3312 16.2313 64.4537 16.1166C64.5762 16.002 64.7219 15.915 64.8809 15.8616C65.0399 15.8081 65.2086 15.7894 65.3754 15.8067C65.5973 15.8112 65.8184 15.8342 66.0364 15.8754L66.0744 17.8963ZM63.683 14.5432C63.8162 14.3042 64.0153 14.1084 64.2565 13.9792C64.4978 13.85 64.7711 13.7929 65.0439 13.8145C65.9789 13.8145 66.0344 14.6356 66.0344 15.3817C65.8414 15.3817 65.6074 15.3397 65.3867 15.3397C64.1376 15.3397 62.75 15.9031 62.75 17.3595C62.7635 17.5872 62.8226 17.8099 62.9238 18.0143C63.025 18.2187 63.1663 18.4007 63.3392 18.5494C63.512 18.6982 63.7131 18.8107 63.9303 18.8803C64.1475 18.9499 64.3765 18.9751 64.6036 18.9545C65.1688 18.905 65.7013 18.668 66.1165 18.2812C66.2311 18.4741 66.391 18.6363 66.5824 18.7536C66.7737 18.8709 66.9907 18.9398 67.2147 18.9545L68.2472 18.1334L68.0419 17.9281C67.9481 17.957 67.8514 17.9749 67.7535 17.9815C67.4528 17.9815 67.343 17.804 67.343 17.1727V16.6873C67.3563 15.9031 67.3984 15.1888 67.3984 14.6951C67.3984 13.3198 66.3536 12.9914 65.1322 12.9914C64.5314 12.9872 63.9333 13.0705 63.3566 13.2387V14.5432H63.683Z" fill="#1E120D"/>
<path fill-rule="evenodd" clip-rule="evenodd" d="M67.9921 9.14233C67.6791 9.14233 67.4225 9.52722 67.4225 9.99524C67.4074 10.1088 67.4224 10.2243 67.466 10.3302C67.5096 10.4361 67.5803 10.5287 67.6709 10.5987C67.87 10.6829 68.1246 10.8738 68.1246 11.4516C68.1234 11.7063 68.0586 11.9566 67.936 12.1798C67.8134 12.403 67.6368 12.5919 67.4225 12.7295C67.3332 12.8249 67.365 13.1277 67.5067 13.1554C67.9359 12.9451 68.2905 12.6087 68.5231 12.1912C68.7557 11.7737 68.8552 11.295 68.8081 10.8194C68.8081 9.6237 68.3298 9.14233 67.9921 9.14233ZM69.7975 9.14233C69.4896 9.14233 69.2299 9.52722 69.2299 9.99524C69.2146 10.1086 69.2293 10.224 69.2725 10.3299C69.3157 10.4358 69.386 10.5285 69.4763 10.5987C69.6743 10.6829 69.9309 10.8738 69.9309 11.4516C69.9298 11.7062 69.8651 11.9564 69.7427 12.1796C69.6203 12.4027 69.444 12.5918 69.2299 12.7295C69.1386 12.8249 69.1704 13.1277 69.311 13.1554C69.7405 12.9454 70.0955 12.609 70.3283 12.1915C70.5611 11.7739 70.6606 11.2951 70.6135 10.8194C70.6135 9.6237 70.1352 9.14233 69.7975 9.14233Z" fill="#1E120D"/>
</g>
<defs>
<clipPath id="clip0_2_3073">
<rect width="65.6869" height="18.4744" fill="white" transform="translate(4.67676 5.90887)"/>
</clipPath>
</defs>
</svg>
