<svg width="45" height="30" viewBox="0 0 45 30" fill="none" xmlns="http://www.w3.org/2000/svg">
<rect x="0.391602" y="0.828186" width="44.1334" height="28.738" rx="4.10543" fill="white"/>
<g clip-path="url(#clip0_2_3068)">
<path d="M15.3057 24.3328V23.1088C15.3123 23.0137 15.3001 22.9183 15.2699 22.8279C15.2396 22.7376 15.1917 22.654 15.1291 22.5822C15.0665 22.5103 14.9904 22.4515 14.905 22.4091C14.8196 22.3667 14.7267 22.3416 14.6316 22.3351C14.5991 22.333 14.5665 22.333 14.534 22.3351C14.3994 22.3268 14.2651 22.3546 14.1449 22.4156C14.0247 22.4765 13.9229 22.5685 13.8501 22.6819C13.7839 22.5716 13.6891 22.4812 13.5759 22.4202C13.4626 22.3591 13.3349 22.3298 13.2064 22.3351C13.0938 22.3297 12.9818 22.3539 12.8815 22.4053C12.7812 22.4567 12.6962 22.5336 12.6349 22.6282V22.3869H12.2109V24.3407H12.6388V23.2661C12.6224 23.146 12.6543 23.0243 12.7276 22.9278C12.8009 22.8313 12.9095 22.7678 13.0296 22.7513C13.0585 22.7484 13.0876 22.7484 13.1165 22.7513C13.3978 22.7513 13.5405 22.9349 13.5405 23.2651V24.3495H13.9683V23.2602C13.9525 23.1395 13.9853 23.0174 14.0595 22.9209C14.1337 22.8244 14.2432 22.7612 14.364 22.7454C14.3912 22.7425 14.4188 22.7425 14.446 22.7454C14.7391 22.7454 14.8739 22.9291 14.8739 23.2593V24.3436L15.3057 24.3328ZM21.6407 22.3791H20.9432V21.7881H20.5154V22.3791H20.1246V22.7698H20.5203V23.6666C20.5203 24.1199 20.6961 24.3885 21.1972 24.3885C21.3847 24.3892 21.5685 24.3371 21.7277 24.2381L21.6056 23.8747C21.4919 23.9427 21.3628 23.9807 21.2304 23.9851C21.0263 23.9851 20.9491 23.8542 20.9491 23.6588V22.7698H21.6417L21.6407 22.3791ZM25.2552 22.3303C25.1518 22.3272 25.0495 22.3521 24.9591 22.4023C24.8687 22.4525 24.7934 22.5262 24.7413 22.6155V22.3791H24.3213V24.3328H24.7452V23.2397C24.7452 22.9174 24.884 22.7376 25.1526 22.7376C25.2436 22.7365 25.3339 22.7535 25.4183 22.7874L25.5482 22.3791C25.4514 22.3445 25.3493 22.3266 25.2464 22.3263L25.2552 22.3303ZM19.7847 22.5344C19.5446 22.3916 19.2686 22.3207 18.9895 22.3303C18.4962 22.3303 18.1738 22.5667 18.1738 22.9545C18.1738 23.2729 18.4102 23.4683 18.8469 23.5289L19.051 23.5582C19.2826 23.5904 19.3929 23.6559 19.3929 23.7614C19.3929 23.9128 19.2386 23.9988 18.9485 23.9988C18.7155 24.0048 18.4873 23.933 18.2998 23.7946L18.0966 24.1248C18.3436 24.2974 18.6395 24.3861 18.9406 24.3778C19.5033 24.3778 19.8296 24.1121 19.8296 23.7418C19.8296 23.3716 19.5727 23.2192 19.1458 23.1557L18.9416 23.1264C18.758 23.102 18.6114 23.0658 18.6114 22.931C18.6114 22.7962 18.7502 22.7024 18.9826 22.7024C19.1975 22.7053 19.408 22.7632 19.5942 22.8705L19.7847 22.5344ZM31.1477 22.3342C31.0444 22.3313 30.9422 22.3563 30.8518 22.4065C30.7614 22.4567 30.6861 22.5302 30.6339 22.6194V22.383H30.2148V24.3368H30.6387V23.2397C30.6387 22.9174 30.7775 22.7376 31.0461 22.7376C31.1368 22.7365 31.2268 22.7534 31.3108 22.7874L31.4417 22.3791C31.3448 22.3445 31.2428 22.3267 31.1399 22.3263L31.1477 22.3342ZM25.684 23.354C25.6792 23.4832 25.6999 23.6121 25.7449 23.7333C25.7899 23.8545 25.8584 23.9657 25.9464 24.0604C26.0344 24.1551 26.1402 24.2315 26.2578 24.2853C26.3754 24.3391 26.5024 24.3692 26.6316 24.3739C26.6629 24.3739 26.6931 24.3739 26.7234 24.3739C26.9782 24.3876 27.2287 24.3045 27.4248 24.1414L27.2216 23.7995C27.0747 23.9107 26.896 23.972 26.7117 23.9743C26.5558 23.9605 26.4107 23.8888 26.3051 23.7734C26.1994 23.6579 26.1408 23.5071 26.1408 23.3506C26.1408 23.1941 26.1994 23.0433 26.3051 22.9278C26.4107 22.8124 26.5558 22.7407 26.7117 22.7269C26.896 22.7292 27.0747 22.7905 27.2216 22.9017L27.4248 22.5598C27.2282 22.3975 26.978 22.3146 26.7234 22.3273C26.5943 22.3198 26.465 22.3378 26.3429 22.3804C26.2208 22.4229 26.1082 22.4892 26.0118 22.5753C25.9153 22.6614 25.8368 22.7657 25.7807 22.8823C25.7246 22.9988 25.6921 23.1253 25.685 23.2544C25.685 23.2856 25.685 23.3159 25.685 23.3462L25.684 23.354ZM29.656 23.354V22.383H29.232V22.6194C29.1598 22.5268 29.0666 22.4527 28.9601 22.4031C28.8536 22.3535 28.7369 22.3299 28.6195 22.3342C28.3547 22.3424 28.1034 22.4534 27.9189 22.6436C27.7344 22.8339 27.6312 23.0885 27.6312 23.3535C27.6312 23.6185 27.7344 23.8732 27.9189 24.0634C28.1034 24.2537 28.3547 24.3647 28.6195 24.3729C28.737 24.3774 28.8538 24.3539 28.9603 24.3043C29.0668 24.2547 29.16 24.1804 29.232 24.0877V24.3241H29.656V23.354ZM28.0774 23.354C28.0834 23.2007 28.1493 23.0558 28.261 22.9505C28.3726 22.8452 28.5211 22.788 28.6745 22.791C28.828 22.794 28.9741 22.857 29.0815 22.9666C29.189 23.0762 29.2492 23.2235 29.2492 23.377C29.2492 23.5304 29.189 23.6778 29.0815 23.7874C28.9741 23.8969 28.828 23.96 28.6745 23.963C28.5211 23.966 28.3726 23.9087 28.261 23.8034C28.1493 23.6981 28.0834 23.5533 28.0774 23.3999C28.0774 23.3843 28.0774 23.3696 28.0774 23.354ZM22.9595 22.3342C22.8232 22.3324 22.688 22.3579 22.5618 22.4093C22.4355 22.4607 22.3209 22.5368 22.2246 22.6333C22.1283 22.7297 22.0523 22.8444 22.0011 22.9707C21.9499 23.097 21.9245 23.2323 21.9265 23.3686C21.9284 23.5049 21.9577 23.6394 22.0125 23.7641C22.0673 23.8889 22.1466 24.0014 22.2456 24.095C22.3446 24.1887 22.4614 24.2615 22.5891 24.3092C22.7167 24.3569 22.8527 24.3786 22.9888 24.3729C23.282 24.3882 23.5703 24.2939 23.7977 24.1082L23.5945 23.7946C23.4332 23.9236 23.2335 23.9951 23.0269 23.9978C22.8863 24.0107 22.7462 23.968 22.6367 23.8789C22.5271 23.7898 22.4568 23.6614 22.4408 23.5211H23.8885V23.3579C23.9015 23.2288 23.8873 23.0983 23.8466 22.9751C23.806 22.8518 23.74 22.7384 23.6528 22.6423C23.5656 22.5461 23.4591 22.4694 23.3404 22.417C23.2217 22.3646 23.0932 22.3377 22.9634 22.3381L22.9595 22.3342ZM22.9595 22.7132C23.0874 22.7116 23.2108 22.7602 23.3032 22.8486C23.3957 22.937 23.4497 23.0582 23.4538 23.186H22.434C22.4413 23.055 22.4996 22.9322 22.5963 22.8436C22.6931 22.7551 22.8206 22.7079 22.9517 22.7122L22.9595 22.7132ZM33.585 23.3579V21.5995H33.1767V22.6184C33.1047 22.5258 33.0117 22.4516 32.9053 22.402C32.799 22.3524 32.6824 22.3288 32.5652 22.3332C32.4286 22.329 32.2926 22.3522 32.1653 22.4015C32.0379 22.4508 31.9217 22.5253 31.8237 22.6203C31.7256 22.7154 31.6477 22.8292 31.5944 22.955C31.5412 23.0808 31.5137 23.216 31.5137 23.3526C31.5137 23.4891 31.5412 23.6243 31.5944 23.7501C31.6477 23.8759 31.7256 23.9897 31.8237 24.0848C31.9217 24.1799 32.0379 24.2543 32.1653 24.3036C32.2926 24.3529 32.4286 24.3762 32.5652 24.3719C32.6824 24.3765 32.7991 24.3531 32.9055 24.3034C33.0119 24.2538 33.1048 24.1795 33.1767 24.0867V24.3241H33.5899L33.585 23.3579ZM34.2923 24.0496C34.3187 24.0487 34.345 24.0533 34.3694 24.0632C34.3929 24.0729 34.4145 24.0868 34.4329 24.1043C34.4508 24.122 34.4654 24.1429 34.4759 24.1658C34.4859 24.1896 34.491 24.2152 34.491 24.241C34.491 24.2668 34.4859 24.2924 34.4759 24.3162C34.4651 24.339 34.4506 24.3598 34.4329 24.3778C34.4144 24.3949 34.3929 24.4085 34.3694 24.4178C34.3451 24.4286 34.3189 24.4342 34.2923 24.4344C34.2536 24.434 34.2159 24.4227 34.1834 24.4018C34.1509 24.3809 34.125 24.3512 34.1086 24.3162C34.0987 24.2924 34.0936 24.2668 34.0936 24.241C34.0936 24.2152 34.0987 24.1896 34.1086 24.1658C34.1188 24.1427 34.1334 24.1218 34.1516 24.1043C34.1701 24.0868 34.1916 24.0729 34.2151 24.0632C34.2414 24.0524 34.2698 24.0477 34.2981 24.0496H34.2923ZM34.2923 24.3934C34.3124 24.3935 34.3323 24.3895 34.3509 24.3817C34.3686 24.3738 34.3845 24.3625 34.3978 24.3485C34.4232 24.3207 34.4373 24.2845 34.4373 24.2469C34.4373 24.2093 34.4232 24.173 34.3978 24.1453C34.3845 24.1312 34.3686 24.1199 34.3509 24.1121C34.3323 24.1043 34.3124 24.1003 34.2923 24.1004C34.2718 24.1003 34.2516 24.1043 34.2327 24.1121C34.2145 24.12 34.1979 24.1313 34.1838 24.1453C34.1584 24.173 34.1443 24.2093 34.1443 24.2469C34.1443 24.2845 34.1584 24.3207 34.1838 24.3485C34.1979 24.3625 34.2145 24.3737 34.2327 24.3817C34.2533 24.3905 34.2757 24.3945 34.2981 24.3934H34.2923ZM34.304 24.1512C34.3233 24.1502 34.3423 24.1561 34.3577 24.1678C34.364 24.1727 34.3689 24.1791 34.372 24.1865C34.375 24.1938 34.3762 24.2018 34.3753 24.2098C34.3758 24.2166 34.3748 24.2234 34.3725 24.2298C34.3701 24.2362 34.3664 24.242 34.3616 24.2469C34.3498 24.2577 34.3347 24.2643 34.3186 24.2654L34.3773 24.3328H34.3304L34.2737 24.2654H34.2551V24.3328H34.217V24.1531L34.304 24.1512ZM34.2591 24.1853V24.2342H34.304C34.3119 24.2371 34.3205 24.2371 34.3284 24.2342C34.3299 24.2315 34.3306 24.2285 34.3306 24.2254C34.3306 24.2223 34.3299 24.2193 34.3284 24.2166C34.3299 24.2137 34.3306 24.2105 34.3306 24.2073C34.3306 24.2041 34.3299 24.2009 34.3284 24.198C34.3205 24.1951 34.3119 24.1951 34.304 24.198L34.2591 24.1853ZM32.0122 23.3579C32.0182 23.2069 32.0832 23.0643 32.1932 22.9607C32.3032 22.857 32.4495 22.8007 32.6006 22.8037C32.7517 22.8067 32.8956 22.8688 33.0014 22.9767C33.1072 23.0846 33.1665 23.2298 33.1665 23.3809C33.1665 23.532 33.1072 23.6771 33.0014 23.785C32.8956 23.893 32.7517 23.9551 32.6006 23.9581C32.4495 23.9611 32.3032 23.9047 32.1932 23.8011C32.0832 23.6975 32.0182 23.5549 32.0122 23.4038C32.0122 23.3892 32.0122 23.3736 32.0122 23.3579ZM17.6922 23.3579V22.381H17.276V22.6175C17.2041 22.5248 17.111 22.4506 17.0047 22.401C16.8984 22.3514 16.7818 22.3278 16.6645 22.3322C16.3996 22.3404 16.1483 22.4514 15.9639 22.6417C15.7794 22.8319 15.6762 23.0866 15.6762 23.3516C15.6762 23.6166 15.7794 23.8712 15.9639 24.0615C16.1483 24.2518 16.3996 24.3627 16.6645 24.3709C16.7818 24.3756 16.8985 24.3521 17.0049 24.3025C17.1112 24.2529 17.2042 24.1785 17.276 24.0857V24.3241H17.7L17.6922 23.3579ZM16.1145 23.3579C16.1212 23.2149 16.1835 23.0802 16.2882 22.9826C16.3928 22.8849 16.5316 22.8321 16.6747 22.8354C16.8178 22.8388 16.9539 22.8979 17.054 23.0003C17.154 23.1027 17.21 23.2402 17.21 23.3833C17.21 23.5265 17.154 23.6639 17.054 23.7663C16.9539 23.8687 16.8178 23.9279 16.6747 23.9312C16.5316 23.9345 16.3928 23.8817 16.2882 23.7841C16.1835 23.6864 16.1212 23.5517 16.1145 23.4087C16.1136 23.3918 16.1136 23.3748 16.1145 23.3579Z" fill="#1F191A"/>
<path d="M26.067 7.5296H19.644V19.0714H26.067V7.5296Z" fill="#FF5F00"/>
<path d="M20.056 13.3022C20.0547 12.1903 20.3064 11.0928 20.7922 10.0927C21.2779 9.09261 21.9849 8.21617 22.8596 7.52981C21.7767 6.67883 20.4763 6.14966 19.1069 6.0028C17.7375 5.85593 16.3544 6.09728 15.1157 6.69927C13.877 7.30126 12.8327 8.2396 12.102 9.40705C11.3714 10.5745 10.9839 11.924 10.9839 13.3012C10.9839 14.6784 11.3714 16.0279 12.102 17.1953C12.8327 18.3628 13.877 19.3011 15.1157 19.9031C16.3544 20.5051 17.7375 20.7465 19.1069 20.5996C20.4763 20.4527 21.7767 19.9236 22.8596 19.0726C21.9852 18.3864 21.2783 17.5103 20.7926 16.5106C20.3069 15.5108 20.055 14.4137 20.056 13.3022Z" fill="#FF0015"/>
<path d="M34.7348 13.3021C34.7348 14.6795 34.3472 16.029 33.6164 17.1965C32.8857 18.364 31.8411 19.3024 30.6023 19.9043C29.3634 20.5062 27.9801 20.7474 26.6107 20.6003C25.2412 20.4532 23.9407 19.9238 22.8579 19.0725C23.7319 18.3857 24.4385 17.5093 24.9244 16.5095C25.4102 15.5098 25.6627 14.4127 25.6627 13.3011C25.6627 12.1895 25.4102 11.0925 24.9244 10.0927C24.4385 9.09294 23.7319 8.21657 22.8579 7.52974C23.9407 6.67847 25.2412 6.14903 26.6107 6.00194C27.9801 5.85485 29.3634 6.09605 30.6023 6.69796C31.8411 7.29987 32.8857 8.23821 33.6164 9.40572C34.3472 10.5732 34.7348 11.9228 34.7348 13.3002V13.3021Z" fill="#FF9200"/>
<path d="M34.0342 17.8483V17.6119H34.1319V17.563H33.8896V17.6119H33.9932V17.8483H34.0342ZM34.5051 17.8483V17.563H34.4318L34.3458 17.7672L34.2609 17.563H34.1954V17.8483H34.2482V17.6344L34.3273 17.82H34.383L34.4621 17.6344V17.8503L34.5051 17.8483Z" fill="#FF9200"/>
</g>
<defs>
<clipPath id="clip0_2_3068">
<rect width="35.9225" height="18.4744" fill="white" transform="translate(4.49707 5.95996)"/>
</clipPath>
</defs>
</svg>
