<svg width="39" height="30" viewBox="0 0 39 30" fill="none" xmlns="http://www.w3.org/2000/svg">
<rect x="0.841309" y="0.828186" width="37.9753" height="28.738" rx="4.10543" fill="#004F89"/>
<g clip-path="url(#clip0_2_3069)">
<path fill-rule="evenodd" clip-rule="evenodd" d="M16.2687 9.56323H18.7103L17.0217 11.2528H23.9098C27.0252 11.2528 26.9881 14.875 26.9881 14.875C26.9881 14.875 26.95 18.385 23.8346 18.385H21.6509V13.751H23.3209V16.6974C23.5505 16.6889 23.7761 16.634 23.984 16.536C24.1919 16.4379 24.3777 16.2987 24.5303 16.1269C24.6829 15.955 24.7991 15.754 24.8719 15.536C24.9447 15.318 24.9725 15.0875 24.9538 14.8584C24.9538 13.2441 23.0767 13.0937 23.0767 13.0937H12.7168L16.2687 9.56323Z" fill="#ECA735"/>
<path d="M20.8067 5.95996H19.1553V10.6711H20.8067V5.95996Z" fill="#ECA735"/>
<path d="M23.2765 7.78918H21.625V10.6604H23.2765V7.78918Z" fill="#ECA735"/>
<path d="M20.7667 13.7619H19.1152V16.6341H20.7667V13.7619Z" fill="#ECA735"/>
<path d="M8.33306 21.2101H7.32812L7.45704 20.5264H10.2785L10.1427 21.2101H9.13779L8.51471 24.3596H7.70998L8.33306 21.2101Z" fill="white"/>
<path d="M10.8882 20.5284H13.1559L13.027 21.2043H11.5523L11.3873 22.0383H12.6393L12.5104 22.7141H11.2584L11.063 23.6839H12.5856L12.4557 24.3597H10.1187L10.8882 20.5284Z" fill="white"/>
<path d="M13.9873 20.5284H14.7921L14.1573 23.6839H15.6095L15.4796 24.3597H13.2178L13.9873 20.5284Z" fill="white"/>
<path d="M16.9219 20.5284H19.1896L19.0607 21.2043H17.586L17.421 22.0383H18.673L18.5441 22.7141H17.2921L17.0967 23.6839H18.6154L18.4855 24.3597H16.1523L16.9219 20.5284Z" fill="white"/>
<path d="M20.022 20.5295H21.232C21.9782 20.5295 22.5427 20.8107 22.5427 21.5461C22.5427 22.6155 21.7428 23.0325 20.774 23.0325H20.3209L20.063 24.3607H19.2515L20.022 20.5295ZM20.8619 22.3919C21.4322 22.3919 21.7487 22.1448 21.7487 21.6633C21.7487 21.3225 21.5143 21.1701 21.1031 21.1701H20.691L20.4566 22.3919H20.8619Z" fill="white"/>
<path d="M24.1046 23.3968H22.9649L22.5137 24.3598H21.625L23.6466 20.5295H24.6105L24.9924 24.3598H24.1515L24.1046 23.3968ZM24.0763 22.7913L24.0529 22.2864C24.0343 21.9094 24.0167 21.551 24.006 21.1457H23.9825C23.8165 21.5364 23.67 21.9036 23.4874 22.2864L23.253 22.7913H24.0763Z" fill="white"/>
<path d="M27.5072 20.459C27.7246 20.4516 27.9398 20.5049 28.1287 20.6128C28.3175 20.7208 28.4726 20.8792 28.5766 21.0704L28.0296 21.4932C27.9752 21.3913 27.8939 21.3063 27.7946 21.2472C27.6952 21.1882 27.5817 21.1574 27.4661 21.1582C26.7552 21.1582 26.2376 21.922 26.2376 22.7745C26.2376 23.3605 26.4671 23.7433 27.0667 23.7433C27.2138 23.7428 27.3573 23.6983 27.4788 23.6154L27.6429 22.8634H27.0189L27.1419 22.2052H28.476L28.1234 24.0324C27.7785 24.294 27.357 24.4344 26.9241 24.4319C26.7139 24.4454 26.5032 24.4125 26.3072 24.3355C26.1111 24.2584 25.9344 24.1391 25.7897 23.986C25.645 23.8329 25.5358 23.6498 25.4699 23.4497C25.404 23.2496 25.383 23.0374 25.4084 22.8283C25.3864 22.534 25.4237 22.2383 25.5179 21.9587C25.6122 21.679 25.7616 21.4211 25.9573 21.2003C26.1529 20.9794 26.3909 20.8 26.6571 20.6726C26.9233 20.5453 27.2124 20.4727 27.5072 20.459Z" fill="white"/>
<path d="M28.995 22.8093C28.9446 22.2405 29.1205 21.6747 29.4845 21.2346C29.8485 20.7946 30.3712 20.5157 30.9395 20.4586C31.1456 20.4545 31.3502 20.4952 31.5391 20.5778C31.728 20.6605 31.8967 20.7832 32.0336 20.9374C32.1705 21.0917 32.2722 21.2738 32.3319 21.4712C32.3915 21.6686 32.4076 21.8765 32.379 22.0808C32.4304 22.6503 32.2545 23.217 31.8897 23.6574C31.5249 24.0978 31.0008 24.376 30.4316 24.4315C30.2254 24.4359 30.0206 24.3954 29.8315 24.3129C29.6425 24.2303 29.4736 24.1076 29.3367 23.9533C29.1997 23.799 29.098 23.6168 29.0385 23.4192C28.979 23.2217 28.9632 23.0136 28.9921 22.8093M29.8144 22.7566C29.8144 23.3679 30.0498 23.7332 30.4726 23.7332C31.0186 23.7332 31.5537 23.0163 31.5537 22.1286C31.5537 21.5172 31.3242 21.152 30.9014 21.152C30.3554 21.152 29.8144 21.863 29.8144 22.7507" fill="white"/>
</g>
<defs>
<clipPath id="clip0_2_3069">
<rect width="29.7644" height="18.4744" fill="white" transform="translate(4.94678 5.95996)"/>
</clipPath>
</defs>
</svg>
