<svg width="42" height="30" viewBox="0 0 42 30" fill="none" xmlns="http://www.w3.org/2000/svg">
<rect x="0.571289" y="0.828186" width="41.0543" height="28.738" rx="4.10543" fill="white"/>
<g clip-path="url(#clip0_2_3066)">
<path d="M16.2471 19.9901L17.9116 10.2348H20.5708L18.9062 19.9901H16.2471Z" fill="#00528D"/>
<path d="M28.5501 10.4755C27.7861 10.1989 26.9791 10.0601 26.1667 10.0656C23.5398 10.0656 21.688 11.3889 21.6724 13.2907C21.6578 14.692 22.9936 15.4754 24.0027 15.9404C25.0431 16.419 25.3854 16.7238 25.3812 17.1514C25.3739 17.8047 24.5489 18.1033 23.7895 18.1033C22.9249 18.1279 22.0665 17.9509 21.2822 17.5863L20.9389 17.4312L20.5654 19.616C21.5139 19.9657 22.5175 20.1419 23.5283 20.1361C26.3227 20.1361 28.1381 18.8274 28.1579 16.807C28.1683 15.697 27.4598 14.8522 25.9263 14.1562C24.9963 13.7047 24.4272 13.4041 24.4334 12.9473C24.4334 12.5416 24.9151 12.1078 25.9555 12.1078C26.6393 12.0914 27.319 12.2182 27.9509 12.4802L28.1901 12.5926L28.5501 10.4755Z" fill="#00528D"/>
<path d="M35.3673 10.2446H33.3127C33.0239 10.2075 32.731 10.2666 32.4791 10.4127C32.2273 10.5588 32.0307 10.7839 31.9196 11.053L27.9663 19.9937H30.7586C30.7586 19.9937 31.2153 18.7921 31.3183 18.5279H34.7244C34.8035 18.8691 35.048 19.9896 35.048 19.9896H37.5198L35.3673 10.2446ZM32.0882 16.5325C32.3077 15.9707 33.1472 13.8057 33.1472 13.8057C33.1316 13.8317 33.3657 13.2408 33.4999 12.8694L33.6799 13.71C33.6799 13.71 34.1886 16.0394 34.2958 16.5273L32.0882 16.5325Z" fill="#00528D"/>
<path d="M14.0147 10.2418L11.4139 16.8948L11.1361 15.5424C10.4613 13.7662 9.14703 12.3065 7.45117 11.4497L9.83565 19.9815H12.6446L16.8309 10.2449L14.0147 10.2418Z" fill="#00528D"/>
<path d="M8.99836 10.2364H4.71005L4.67676 10.4393C6.08794 10.699 7.41421 11.2998 8.54006 12.1894C9.66591 13.079 10.5572 14.2304 11.1363 15.5432L10.2 11.0603C10.1318 10.8009 9.9724 10.5746 9.75089 10.4233C9.52939 10.2719 9.2607 10.2056 8.9942 10.2364" fill="#E79D00"/>
</g>
<defs>
<clipPath id="clip0_2_3066">
<rect width="32.8435" height="18.4744" fill="white" transform="translate(4.67676 5.95996)"/>
</clipPath>
</defs>
</svg>
