<svg width="71" height="30" viewBox="0 0 71 30" fill="none" xmlns="http://www.w3.org/2000/svg">
<rect x="0.34375" y="0.7771" width="69.7924" height="28.738" rx="4.10543" fill="white"/>
<g clip-path="url(#clip0_2_3076)">
<path d="M8.45979 17.034C9.25276 17.0338 10.0279 16.7977 10.6871 16.3555C11.3463 15.9134 11.8601 15.285 12.1634 14.5499C12.4667 13.8147 12.546 13.0059 12.3912 12.2255C12.2364 11.4452 11.8544 10.7285 11.2936 10.1659C10.7328 9.60341 10.0184 9.22035 9.24063 9.06521C8.46288 8.91006 7.65675 8.98979 6.92415 9.29431C6.19156 9.59883 5.56541 10.1145 5.12488 10.776C4.68435 11.4376 4.44922 12.2154 4.44922 13.011C4.44922 13.5394 4.55296 14.0626 4.75452 14.5508C4.95609 15.039 5.25152 15.4825 5.62395 15.8561C5.99638 16.2297 6.43851 16.526 6.92509 16.7281C7.41167 16.9302 7.93316 17.0342 8.45979 17.034Z" fill="#0082CA"/>
<path d="M7.82188 13.3072H8.51137C8.67468 13.2926 8.83905 13.3191 8.98956 13.3843C9.05718 13.424 9.11363 13.4803 9.1536 13.5479C9.19357 13.6155 9.21574 13.6922 9.21805 13.7708C9.21887 13.8521 9.2002 13.9324 9.1636 14.005C9.12701 14.0776 9.07356 14.1402 9.00776 14.1877C8.8423 14.2667 8.65799 14.2973 8.47598 14.276H7.82188V13.3072ZM7.82188 11.7126H8.38904C8.57045 11.6932 8.7539 11.7133 8.92688 11.7715C8.9894 11.8091 9.04098 11.8625 9.07646 11.9264C9.11195 11.9903 9.13009 12.0625 9.12908 12.1356C9.13017 12.205 9.11554 12.2738 9.0863 12.3367C9.05705 12.3996 9.01395 12.455 8.96025 12.4988C8.80866 12.5825 8.63432 12.6152 8.46284 12.5921H7.82592L7.82188 11.7126ZM6.88672 11.0026V15.0256H8.68121C9.03852 15.0642 9.39884 14.9882 9.7104 14.8085C9.85524 14.7121 9.97533 14.5828 10.0609 14.431C10.1465 14.2792 10.1951 14.1093 10.2027 13.9351C10.2077 13.6951 10.1258 13.4613 9.97231 13.2771C9.8188 13.0929 9.60403 12.9706 9.36767 12.9329V12.9207C9.57002 12.8843 9.75318 12.7777 9.88513 12.6196C10.0171 12.4614 10.0894 12.2617 10.0895 12.0555C10.0938 11.8776 10.0502 11.7019 9.96343 11.5468C9.87661 11.3917 9.74974 11.2629 9.59615 11.174C9.31352 11.0276 8.99473 10.9663 8.67818 10.9975L6.88672 11.0026Z" fill="white"/>
<path d="M63.8654 21.1381H66.0309V10.9943H63.8654V21.1381ZM60.6242 21.1381H62.7907V10.9943H60.6242V21.1381ZM54.8484 16.4719C54.9222 15.6148 55.2902 14.9047 56.2476 14.9047C57.205 14.9047 57.4608 15.6584 57.5002 16.4719H54.8484ZM59.6668 17.7582C59.7338 16.7204 59.465 15.6886 58.9005 14.8165C58.5785 14.395 58.1633 14.0545 57.6876 13.8218C57.212 13.589 56.6889 13.4705 56.1597 13.4754C53.8344 13.4754 52.5201 15.2648 52.5201 17.4822C52.4858 17.9827 52.5571 18.4848 52.7296 18.9557C52.902 19.4266 53.1716 19.8556 53.5207 20.2147C53.8698 20.5738 54.2906 20.8549 54.7555 21.0395C55.2203 21.2242 55.7188 21.3082 56.2183 21.2862C56.9944 21.3082 57.7548 21.0639 58.3738 20.5936C58.9927 20.1233 59.4332 19.4551 59.6223 18.6995L57.6195 18.5473C57.5949 18.8787 57.4427 19.1875 57.1951 19.4083C56.9475 19.6291 56.624 19.7445 56.2931 19.7301C56.0891 19.7313 55.8871 19.689 55.7005 19.6062C55.5139 19.5233 55.3469 19.4018 55.2105 19.2495C55.0741 19.0972 54.9714 18.9177 54.9092 18.7227C54.847 18.5277 54.8266 18.3217 54.8494 18.1183L54.8636 17.749L59.6668 17.7582ZM49.5438 18.0097C49.569 18.3894 49.5031 18.7696 49.3517 19.1184C49.2624 19.2945 49.1281 19.4436 48.9626 19.5505C48.797 19.6575 48.6062 19.7184 48.4095 19.7271C47.3328 19.7271 47.2155 18.3526 47.2155 17.5401C47.2155 16.6373 47.26 15.0112 48.4974 15.0112C49.4852 15.0112 49.5438 16.2528 49.5438 16.9781V18.0097ZM51.7093 21.1431V10.9993H49.5438V14.4269C49.3494 14.1109 49.0718 13.8548 48.7416 13.6869C48.4114 13.519 48.0415 13.4459 47.6725 13.4754C45.4918 13.4754 44.9317 15.6787 44.9317 17.467C44.9317 19.2107 45.5211 21.2811 47.628 21.2811C48.0524 21.2838 48.468 21.1598 48.8221 20.9251C49.1761 20.6903 49.4527 20.3552 49.6166 19.9624H49.6469V21.13L51.7093 21.1431ZM41.9109 17.8373C41.9696 18.3396 41.8665 18.8475 41.6167 19.2868C41.5014 19.4738 41.341 19.6287 41.1504 19.7372C40.9597 19.8457 40.745 19.9043 40.5258 19.9076C40.3956 19.915 40.2653 19.8941 40.1437 19.8465C40.0222 19.7988 39.9123 19.7255 39.8215 19.6315C39.7307 19.5375 39.6611 19.425 39.6174 19.3017C39.5738 19.1783 39.5571 19.047 39.5684 18.9166C39.5684 17.8231 41.0849 17.6314 41.9109 17.5421V17.8373ZM44.2685 21.134C44.1605 20.7699 44.1107 20.3909 44.1209 20.0111V16.5105C44.1209 15.6097 44.1947 14.786 43.4284 14.1602C42.73 13.6852 41.8985 13.4471 41.0556 13.4805C39.4795 13.4805 37.7113 14.0131 37.4898 15.8318L39.5391 16.0226C39.5391 15.2841 40.1457 14.929 40.8352 14.929C40.9995 14.9197 41.1639 14.9466 41.3168 15.008C41.4696 15.0693 41.6072 15.1636 41.7198 15.2841C41.8921 15.5834 41.9593 15.932 41.9109 16.2741V16.4516C40.9084 16.4891 39.9141 16.6482 38.9497 16.9253C38.4677 17.0665 38.0438 17.3599 37.7412 17.7619C37.4385 18.1639 37.273 18.6532 37.2695 19.157C37.2629 19.4588 37.3212 19.7584 37.4405 20.0355C37.5598 20.3126 37.7372 20.5607 37.9607 20.7627C38.1841 20.9648 38.4484 21.1162 38.7354 21.2065C39.0225 21.2968 39.3256 21.324 39.624 21.2862C40.1041 21.3069 40.5807 21.1948 41.0016 20.9623C41.4225 20.7297 41.7717 20.3856 42.011 19.9675C41.9939 20.3594 42.0279 20.7519 42.1121 21.135L44.2685 21.134ZM29.9914 21.134H31.1702C31.2615 20.7232 31.4262 20.3325 31.6565 19.9807C31.837 20.3912 32.1385 20.7363 32.5204 20.9697C32.9023 21.2031 33.3463 21.3136 33.7927 21.2862C36.0472 21.2862 36.8256 19.3497 36.8256 17.3838C36.8256 15.6097 36.1776 13.4805 34.0414 13.4805C33.6624 13.4578 33.2854 13.5501 32.9595 13.7453C32.6335 13.9405 32.3736 14.2296 32.2135 14.575H32.1549V10.9963H29.9914V21.134ZM32.1862 16.9061C32.1862 16.1078 32.3338 14.9696 33.3802 14.9696C34.5732 14.9696 34.5732 16.5368 34.5732 17.3798C34.5732 18.1913 34.5732 19.7595 33.3509 19.7595C33.1673 19.761 32.9866 19.7139 32.8269 19.6231C32.6672 19.5323 32.5341 19.4009 32.441 19.2422C32.2417 18.8551 32.1548 18.4196 32.1903 17.9854L32.1862 16.9061ZM26.5824 17.8373C26.6412 18.3397 26.5378 18.8478 26.2871 19.2868C26.1721 19.4739 26.012 19.6288 25.8215 19.7373C25.631 19.8458 25.4163 19.9044 25.1973 19.9076C25.067 19.9151 24.9365 19.8944 24.8149 19.8468C24.6932 19.7992 24.5832 19.7259 24.4923 19.6319C24.4014 19.5379 24.3317 19.4254 24.288 19.3019C24.2442 19.1785 24.2275 19.0471 24.2389 18.9166C24.2389 17.8231 25.7554 17.6314 26.5824 17.5421V17.8373ZM28.94 21.134C28.832 20.7699 28.7821 20.3909 28.7924 20.0111V16.5105C28.7924 15.6097 28.8662 14.786 28.0998 14.1602C27.4015 13.6852 26.57 13.4471 25.7271 13.4805C24.1509 13.4805 22.3827 14.0131 22.1613 15.8318L24.2096 16.0226C24.2096 15.2841 24.8162 14.929 25.5067 14.929C25.6709 14.9196 25.8351 14.9466 25.9878 15.0079C26.1405 15.0693 26.2779 15.1635 26.3903 15.2841C26.5633 15.5831 26.631 15.9318 26.5824 16.2741V16.4516C25.5795 16.489 24.5849 16.6481 23.6202 16.9253C23.1381 17.0665 22.7143 17.3599 22.4116 17.7619C22.1089 18.1639 21.9435 18.6532 21.9399 19.157C21.9333 19.4592 21.9917 19.7593 22.1112 20.0367C22.2307 20.3142 22.4085 20.5625 22.6324 20.7647C22.8563 20.967 23.1211 21.1183 23.4086 21.2085C23.6962 21.2987 23.9997 21.3255 24.2985 21.2872C24.7785 21.3072 25.2548 21.1949 25.6756 20.9624C26.0964 20.7299 26.4457 20.3862 26.6855 19.9685C26.6674 20.3604 26.7014 20.7531 26.7866 21.136L28.94 21.134ZM21.1301 13.2218C20.5164 11.47 19.0718 10.8482 17.3046 10.8482C16.3874 10.8061 15.4864 11.1007 14.77 11.6769C14.4212 11.9654 14.142 12.3294 13.9533 12.7415C13.7646 13.1536 13.6712 13.6032 13.6802 14.0567C13.6802 16.2741 15.4484 16.8067 17.2449 17.1759C17.8646 17.3098 19.0141 17.4721 19.0141 18.314C19.0141 19.156 18.1144 19.4096 17.437 19.4096C16.9713 19.4732 16.4987 19.362 16.1098 19.0972C15.7209 18.8325 15.4432 18.4329 15.3301 17.9752L13.1494 18.4773C13.6064 20.4584 15.3301 21.2862 17.2308 21.2862C18.2719 21.3391 19.3017 21.0484 20.1626 20.4584C20.5498 20.1576 20.8637 19.7723 21.0806 19.3317C21.2974 18.8911 21.4115 18.4068 21.4142 17.9154C21.4141 17.4361 21.2923 16.9648 21.0604 16.5458C20.8286 16.1268 20.4942 15.7739 20.0888 15.5204C19.2646 15.0854 18.3721 14.7955 17.4501 14.6633C16.8759 14.5618 15.9923 14.3823 15.9923 13.6428C15.9923 12.8597 16.7576 12.6964 17.3915 12.6964C17.7762 12.6543 18.1633 12.7521 18.4823 12.9719C18.8014 13.1917 19.0313 13.519 19.1304 13.8944L21.1301 13.2218Z" fill="#1E120D"/>
</g>
<defs>
<clipPath id="clip0_2_3076">
<rect width="61.5815" height="18.4744" fill="white" transform="translate(4.44922 5.90887)"/>
</clipPath>
</defs>
</svg>
