<svg width="46" height="30" viewBox="0 0 46 30" fill="none" xmlns="http://www.w3.org/2000/svg">
<rect x="0.941895" y="0.828186" width="44.1334" height="28.738" rx="4.10543" fill="white"/>
<g clip-path="url(#clip0_2_3067)">
<path fill-rule="evenodd" clip-rule="evenodd" d="M22.7889 22.0096C23.7373 21.1421 24.4947 20.0867 25.0129 18.9104C25.5311 17.7342 25.7987 16.4629 25.7987 15.1776C25.7987 13.8922 25.5311 12.621 25.0129 11.4447C24.4947 10.2685 23.7373 9.21303 22.7889 8.34552C21.1124 6.80907 18.9204 5.95775 16.6463 5.95997C14.2017 5.95997 11.8571 6.9311 10.1285 8.65974C8.39985 10.3884 7.42871 12.7329 7.42871 15.1776C7.42871 17.6222 8.39985 19.9668 10.1285 21.6954C11.8571 23.4241 14.2017 24.3952 16.6463 24.3952C18.9204 24.3974 21.1124 23.5461 22.7889 22.0096Z" fill="#0097D9"/>
<path fill-rule="evenodd" clip-rule="evenodd" d="M28.9349 5.95997C26.6612 5.95781 24.4695 6.80914 22.7935 8.34552C22.4617 8.6493 22.1526 8.97697 21.8687 9.32589H23.7205C23.9739 9.63741 24.2072 9.96487 24.4187 10.3063H21.1715C20.9767 10.6224 20.8006 10.9497 20.6443 11.2866H24.9405C25.0888 11.6057 25.2187 11.933 25.3294 12.267H20.2565C20.1503 12.5887 20.0616 12.916 19.9907 13.2473H25.5951C25.9414 14.8688 25.8496 16.5532 25.3294 18.1274H20.2565C20.3668 18.4614 20.4963 18.7887 20.6443 19.1078H24.9405C24.785 19.4448 24.6093 19.7722 24.4143 20.0881H21.1715C21.3823 20.4297 21.6152 20.7572 21.8687 21.0685H23.7205C23.4367 21.4169 23.1284 21.7445 22.7978 22.0488C24.4739 23.5852 26.6656 24.4366 28.9393 24.4344C31.3839 24.4344 33.7285 23.4633 35.4571 21.7346C37.1858 20.006 38.1569 17.6615 38.1569 15.2168C38.1569 12.7721 37.1858 10.4276 35.4571 8.69896C33.7285 6.97032 31.3839 5.99918 28.9393 5.99918" fill="#E40620"/>
<path fill-rule="evenodd" clip-rule="evenodd" d="M36.8628 20.3155C36.863 20.2569 36.8806 20.1997 36.9133 20.1512C36.9459 20.1026 36.9923 20.0648 37.0465 20.0425C37.1006 20.0202 37.1601 20.0145 37.2176 20.0261C37.275 20.0376 37.3276 20.0659 37.369 20.1074C37.4103 20.1489 37.4384 20.2017 37.4498 20.2591C37.4611 20.3166 37.4552 20.3761 37.4327 20.4302C37.4103 20.4843 37.3723 20.5305 37.3236 20.563C37.2749 20.5955 37.2176 20.6128 37.1591 20.6128C37.1201 20.6128 37.0815 20.6051 37.0454 20.5902C37.0094 20.5752 36.9767 20.5533 36.9492 20.5257C36.9217 20.498 36.8999 20.4653 36.885 20.4292C36.8702 20.3931 36.8627 20.3545 36.8628 20.3155ZM37.1591 20.542C37.2039 20.5423 37.2479 20.5291 37.2853 20.5044C37.3227 20.4796 37.3519 20.4443 37.3692 20.4029C37.3865 20.3615 37.3911 20.316 37.3825 20.2719C37.3739 20.2279 37.3524 20.1874 37.3208 20.1556C37.2891 20.1238 37.2488 20.1022 37.2048 20.0933C37.1608 20.0845 37.1152 20.0889 37.0737 20.106C37.0323 20.1232 36.9968 20.1522 36.9719 20.1895C36.9469 20.2268 36.9336 20.2706 36.9336 20.3155C36.9335 20.3452 36.9392 20.3746 36.9504 20.4021C36.9617 20.4296 36.9783 20.4546 36.9993 20.4756C37.0202 20.4967 37.0451 20.5134 37.0725 20.5248C37.1 20.5362 37.1294 20.542 37.1591 20.542ZM37.1188 20.4462H37.0578V20.1847H37.1667C37.1897 20.1824 37.2128 20.187 37.2332 20.1978C37.2434 20.2053 37.2518 20.2151 37.2574 20.2265C37.2631 20.2379 37.266 20.2505 37.2658 20.2632C37.266 20.2776 37.2619 20.2918 37.2539 20.3038C37.2459 20.3159 37.2345 20.3252 37.2212 20.3307L37.2691 20.4462H37.2016L37.1624 20.3427H37.1177V20.298H37.1515C37.1641 20.2995 37.1768 20.2976 37.1885 20.2926C37.1931 20.2892 37.1968 20.2848 37.1992 20.2796C37.2017 20.2745 37.2029 20.2689 37.2027 20.2632C37.2027 20.2578 37.2014 20.2525 37.199 20.2478C37.1965 20.243 37.1929 20.239 37.1885 20.2359C37.1756 20.2327 37.1621 20.2327 37.1493 20.2359H37.1177V20.4538L37.1188 20.4462Z" fill="#E40620"/>
<path fill-rule="evenodd" clip-rule="evenodd" d="M34.9292 17.1762C34.9294 17.1177 34.947 17.0605 34.9797 17.0119C35.0124 16.9634 35.0587 16.9255 35.1129 16.9033C35.167 16.881 35.2266 16.8753 35.284 16.8869C35.3414 16.8984 35.3941 16.9267 35.4354 16.9682C35.4767 17.0097 35.5048 17.0625 35.5162 17.1199C35.5275 17.1774 35.5216 17.2369 35.4991 17.291C35.4767 17.345 35.4387 17.3913 35.39 17.4238C35.3413 17.4563 35.284 17.4736 35.2255 17.4736C35.1865 17.4736 35.1479 17.4659 35.1119 17.451C35.0758 17.436 35.0431 17.4141 35.0156 17.3865C34.9881 17.3588 34.9663 17.326 34.9514 17.29C34.9366 17.2539 34.9291 17.2152 34.9292 17.1762ZM35.2255 17.4028C35.2703 17.403 35.3143 17.3899 35.3517 17.3652C35.3891 17.3404 35.4183 17.3051 35.4356 17.2637C35.4529 17.2223 35.4575 17.1767 35.4489 17.1327C35.4403 17.0887 35.4188 17.0482 35.3872 17.0164C35.3555 16.9846 35.3152 16.9629 35.2712 16.9541C35.2272 16.9453 35.1816 16.9497 35.1401 16.9668C35.0987 16.9839 35.0632 17.013 35.0383 17.0503C35.0133 17.0875 35 17.1314 35 17.1762C34.9999 17.2059 35.0056 17.2354 35.0169 17.2629C35.0281 17.2903 35.0447 17.3153 35.0657 17.3364C35.0866 17.3574 35.1115 17.3741 35.1389 17.3855C35.1664 17.3969 35.1958 17.4028 35.2255 17.4028ZM35.1852 17.307H35.1242V17.0455H35.2331C35.2561 17.0432 35.2792 17.0478 35.2996 17.0586C35.3098 17.0661 35.3181 17.076 35.3237 17.0874C35.3294 17.0987 35.3323 17.1113 35.3322 17.124C35.3328 17.1385 35.3287 17.1528 35.3207 17.1649C35.3127 17.177 35.3011 17.1863 35.2876 17.1915L35.3355 17.307H35.268L35.2288 17.198H35.1852V17.1588H35.219C35.2311 17.162 35.2439 17.162 35.256 17.1588C35.2607 17.1555 35.2645 17.1511 35.2672 17.146C35.2699 17.1409 35.2712 17.1352 35.2712 17.1294C35.271 17.124 35.2695 17.1187 35.2668 17.114C35.2642 17.1093 35.2605 17.1052 35.256 17.1022C35.2434 17.0995 35.2304 17.0995 35.2179 17.1022H35.1852V17.32V17.307Z" fill="white"/>
<path fill-rule="evenodd" clip-rule="evenodd" d="M15.5022 17.4742H14.3638L15.0403 13.8795L13.4815 17.4742H12.4434L12.2539 13.9013L11.5752 17.4731H10.5415L11.4249 12.8H13.2016L13.2952 15.6932L14.5479 12.8H16.3997L15.5022 17.4742Z" fill="white"/>
<path fill-rule="evenodd" clip-rule="evenodd" d="M28.2331 17.4276C27.9675 17.5069 27.6921 17.5484 27.415 17.5507C26.8322 17.5507 26.5142 17.2565 26.5142 16.7163C26.5152 16.6018 26.5265 16.4877 26.5479 16.3753L26.6166 16.0039L26.6699 15.7032L27.1982 12.8013H28.33L28.1666 13.6728H28.7472L28.5914 14.5965H28.0076L27.708 16.189C27.6964 16.2406 27.6898 16.2931 27.6884 16.3459C27.6884 16.542 27.8061 16.628 28.0773 16.628C28.1805 16.6312 28.2837 16.6191 28.3834 16.5921L28.2331 17.4276Z" fill="white"/>
<path fill-rule="evenodd" clip-rule="evenodd" d="M31.5562 13.7042C31.515 13.6857 31.4719 13.6718 31.4276 13.6628L31.3296 13.6411C31.2915 13.6342 31.2529 13.6309 31.2141 13.6312C30.8405 13.6312 30.5715 13.799 30.2229 14.2489L30.3231 13.6726H29.2915L28.5977 17.4732H29.7371C30.1455 15.1486 30.3198 14.7423 30.8667 14.7423C30.907 14.7423 30.9549 14.7423 31.0104 14.751L31.1433 14.7794L31.5562 13.7042Z" fill="white"/>
<path fill-rule="evenodd" clip-rule="evenodd" d="M23.7164 14.874C23.7164 15.3544 23.9844 15.6844 24.5933 15.9328C25.0606 16.1245 25.1379 16.1801 25.1379 16.3522C25.1379 16.5897 24.9321 16.6964 24.4767 16.6964C24.1271 16.6955 23.7794 16.6449 23.4441 16.5461L23.2861 17.4175L23.3373 17.4262L23.5487 17.4654C23.6162 17.4774 23.7164 17.4883 23.8493 17.4992C24.1227 17.5199 24.3351 17.5308 24.4844 17.5308C25.7 17.5308 26.2621 17.1289 26.2621 16.2618C26.2701 16.0186 26.1935 15.7802 26.0453 15.5873C25.8971 15.3944 25.6865 15.259 25.4495 15.2041C24.9669 15.0124 24.9114 14.9699 24.9114 14.7923C24.9114 14.5875 25.102 14.4819 25.4745 14.4819C25.7513 14.4856 26.0277 14.5045 26.3024 14.5385L26.4669 13.6595C26.1305 13.6151 25.7919 13.59 25.4527 13.5843C24.1641 13.5843 23.7175 14.1682 23.7219 14.8697" fill="white"/>
<path fill-rule="evenodd" clip-rule="evenodd" d="M19.2062 17.4737H18.2596L18.2813 17.0805C18.127 17.2396 17.9399 17.3631 17.7329 17.4425C17.526 17.5219 17.3043 17.5552 17.0831 17.5402C16.9447 17.5475 16.8063 17.5257 16.6769 17.4762C16.5474 17.4267 16.4298 17.3505 16.3316 17.2527C16.2335 17.1548 16.157 17.0374 16.107 16.9081C16.0571 16.7789 16.0349 16.6405 16.0418 16.5021C16.0418 15.5762 16.7781 15.037 18.0428 15.037C18.1979 15.0383 18.3528 15.0481 18.5068 15.0664C18.5339 14.9866 18.5489 14.9033 18.5515 14.8191C18.5515 14.5675 18.3522 14.4738 17.8206 14.4738C17.5023 14.4737 17.185 14.5102 16.8751 14.5827L16.7171 14.6231L16.6147 14.647L16.7738 13.793C17.2169 13.6649 17.6752 13.5971 18.1365 13.5915C19.1168 13.5915 19.6332 13.9771 19.6332 14.7058C19.6265 14.9595 19.5955 15.2119 19.5406 15.4596L19.302 16.8071L19.2628 17.0489L19.2334 17.2428L19.2138 17.3746L19.2062 17.4737ZM18.375 15.781C18.2905 15.7704 18.2053 15.7653 18.1201 15.7657C17.4753 15.7657 17.1485 15.9596 17.1485 16.3441C17.146 16.3975 17.1551 16.4507 17.175 16.5002C17.195 16.5497 17.2254 16.5943 17.2642 16.631C17.3029 16.6677 17.3492 16.6956 17.3997 16.7129C17.4502 16.7301 17.5039 16.7362 17.557 16.7308C17.6738 16.7242 17.788 16.694 17.8929 16.6423C17.9978 16.5905 18.0912 16.5181 18.1676 16.4295C18.2439 16.3409 18.3016 16.2378 18.3373 16.1263C18.3729 16.0149 18.3857 15.8975 18.375 15.781Z" fill="white"/>
<path fill-rule="evenodd" clip-rule="evenodd" d="M22.9437 17.3867C22.5635 17.4902 22.1711 17.5418 21.7771 17.5403C20.5037 17.5403 19.8403 16.9565 19.8403 15.8377C19.8152 15.557 19.8473 15.274 19.9349 15.006C20.0225 14.7381 20.1637 14.4907 20.3498 14.279C20.5359 14.0673 20.7632 13.8957 21.0177 13.7745C21.2723 13.6533 21.5488 13.5852 21.8305 13.5742C22.0248 13.5502 22.2221 13.5681 22.4089 13.6269C22.5957 13.6856 22.7677 13.7838 22.9133 13.9147C23.0589 14.0456 23.1747 14.2063 23.2529 14.3859C23.331 14.5654 23.3697 14.7596 23.3664 14.9554C23.3609 15.2729 23.3137 15.5882 23.2259 15.8933H20.9623C20.9554 15.9329 20.9517 15.9729 20.9514 16.0131C20.9514 16.4488 21.2891 16.6787 21.9503 16.6787C22.3568 16.6791 22.7592 16.5972 23.1333 16.4379L22.9437 17.3867ZM22.337 15.1253C22.3435 15.0458 22.3468 14.9816 22.3468 14.9315C22.3502 14.8614 22.338 14.7914 22.311 14.7267C22.2841 14.6619 22.243 14.604 22.1909 14.557C22.1387 14.5101 22.0768 14.4754 22.0096 14.4554C21.9423 14.4353 21.8715 14.4305 21.8022 14.4413C21.4405 14.4413 21.1813 14.6842 21.0756 15.1232L22.337 15.1253Z" fill="white"/>
<path fill-rule="evenodd" clip-rule="evenodd" d="M35.098 15.754C35.0755 16.0202 35 16.2792 34.8759 16.5159C34.7519 16.7525 34.5819 16.962 34.3758 17.1321C34.1697 17.3021 33.9318 17.4293 33.6759 17.5062C33.42 17.583 33.1513 17.608 32.8857 17.5796C32.6462 17.6082 32.4033 17.5831 32.1748 17.506C31.9462 17.4289 31.7377 17.3019 31.5644 17.1341C31.3912 16.9664 31.2574 16.7621 31.173 16.5362C31.0886 16.3102 31.0556 16.0683 31.0764 15.828C31.0559 15.5273 31.0997 15.2256 31.2049 14.9431C31.3101 14.6606 31.4742 14.4037 31.6864 14.1896C31.8986 13.9754 32.1539 13.8089 32.4355 13.7011C32.717 13.5934 33.0183 13.5468 33.3192 13.5645C33.5545 13.5415 33.792 13.5693 34.0155 13.646C34.2391 13.7228 34.4436 13.8467 34.6151 14.0095C34.7865 14.1722 34.921 14.3698 35.0094 14.5891C35.0979 14.8083 35.1381 15.044 35.1274 15.2801C35.1328 15.4376 35.1229 15.5952 35.098 15.7507M33.9249 15.2649C33.9249 14.8673 33.7647 14.4915 33.2974 14.4915C32.7168 14.4915 32.3563 15.1843 32.3563 15.7986C32.3563 16.315 32.6036 16.6603 33.0099 16.6537C33.2327 16.6051 33.4357 16.4903 33.5922 16.3243C33.7487 16.1583 33.8514 15.9488 33.8867 15.7235C33.912 15.5734 33.9244 15.4214 33.9238 15.2692" fill="white"/>
</g>
<defs>
<clipPath id="clip0_2_3067">
<rect width="35.9225" height="18.4744" fill="white" transform="translate(5.04736 5.95996)"/>
</clipPath>
</defs>
</svg>
